<svg width="87" height="87" viewBox="0 0 87 87" fill="none" xmlns="http://www.w3.org/2000/svg">
<rect x="2" y="2.48511" width="83" height="83" rx="41.5" fill="#FF0000" stroke="white" stroke-width="3"/>
<path d="M67.4193 32.1564C66.8579 30.0455 65.1968 28.3802 63.0835 27.8095C59.2623 26.7853 43.9309 26.7853 43.9309 26.7853C43.9309 26.7853 28.6073 26.7853 24.7783 27.8095C22.6728 28.3724 21.0117 30.0376 20.4425 32.1564C19.4209 35.9873 19.4209 43.9853 19.4209 43.9853C19.4209 43.9853 19.4209 51.9833 20.4425 55.8142C21.0039 57.9251 22.665 59.5904 24.7783 60.1611C28.6073 61.1853 43.9309 61.1853 43.9309 61.1853C43.9309 61.1853 59.2623 61.1853 63.0835 60.1611C65.189 59.5982 66.8501 57.9329 67.4193 55.8142C68.4409 51.9833 68.4409 43.9853 68.4409 43.9853C68.4409 43.9853 68.4409 35.9873 67.4193 32.1564Z" fill="white"/>
<path d="M39.0336 51.3578L51.7682 43.9853L39.0336 36.6127V51.3578Z" fill="#FF0000"/>
</svg>
