<svg width="87" height="87" viewBox="0 0 87 87" fill="none" xmlns="http://www.w3.org/2000/svg">
<rect x="1.92188" y="2.40717" width="83" height="83" rx="41.5" fill="url(#paint0_radial_30_11540)" stroke="white" stroke-width="3"/>
<path d="M43.5373 22.5101C31.4202 22.5101 22.0244 31.3895 22.0244 43.3776C22.0244 49.6486 24.5952 55.0698 28.7795 58.8131C29.129 59.125 29.3442 59.566 29.3549 60.0393L29.4733 63.8686C29.4819 64.1504 29.5596 64.4257 29.6995 64.6704C29.8394 64.9151 30.0373 65.1217 30.2758 65.272C30.5143 65.4223 30.786 65.5117 31.0671 65.5324C31.3483 65.5531 31.6302 65.5044 31.8881 65.3907L36.1584 63.5083C36.5187 63.3469 36.9275 63.32 37.3093 63.4222C39.2724 63.96 41.3591 64.2505 43.5373 64.2505C55.6545 64.2505 65.0502 55.371 65.0502 43.383C65.0502 31.3949 55.6545 22.5101 43.5373 22.5101Z" fill="white"/>
<path d="M30.6188 49.4819L36.9382 39.4569C37.176 39.0794 37.4894 38.7554 37.8586 38.5052C38.2279 38.255 38.6451 38.084 39.0837 38.0032C39.5224 37.9223 39.9731 37.9333 40.4073 38.0354C40.8415 38.1375 41.2499 38.3285 41.6065 38.5963L46.6352 42.3665C46.8597 42.5345 47.1328 42.6249 47.4132 42.624C47.6937 42.623 47.9662 42.5307 48.1895 42.3611L54.9768 37.2088C55.8803 36.5203 57.0635 37.6067 56.4612 38.5695L50.1364 48.5891C49.8987 48.9665 49.5853 49.2906 49.216 49.5408C48.8467 49.791 48.4296 49.9619 47.9909 50.0428C47.5522 50.1236 47.1015 50.1127 46.6673 50.0106C46.2331 49.9085 45.8248 49.7175 45.4681 49.4496L40.4395 45.6795C40.215 45.5114 39.9418 45.421 39.6614 45.422C39.381 45.4229 39.1085 45.5152 38.8851 45.6848L32.0978 50.8372C31.1943 51.5256 30.0111 50.4446 30.6188 49.4819Z" fill="url(#paint1_radial_30_11540)"/>
<defs>
<radialGradient id="paint0_radial_30_11540" cx="0" cy="0" r="1" gradientUnits="userSpaceOnUse" gradientTransform="translate(14.8269 86.9048) scale(94.6 94.5974)">
<stop stop-color="#0099FF"/>
<stop offset="0.6" stop-color="#A033FF"/>
<stop offset="0.9" stop-color="#FF5280"/>
<stop offset="1" stop-color="#FF7061"/>
</radialGradient>
<radialGradient id="paint1_radial_30_11540" cx="0" cy="0" r="1" gradientUnits="userSpaceOnUse" gradientTransform="translate(29.2312 65.5359) scale(47.3284)">
<stop stop-color="#0099FF"/>
<stop offset="0.6" stop-color="#A033FF"/>
<stop offset="0.9" stop-color="#FF5280"/>
<stop offset="1" stop-color="#FF7061"/>
</radialGradient>
</defs>
</svg>
