<svg width="87" height="86" viewBox="0 0 87 86" fill="none" xmlns="http://www.w3.org/2000/svg">
<rect x="2" y="1.5" width="83" height="83" rx="41.5" fill="url(#paint0_linear_30_11109)" stroke="white" stroke-width="3"/>
<path d="M36.3431 43.1102C36.3431 39.1488 39.5526 35.9366 43.5129 35.9366C47.4732 35.9366 50.6844 39.1488 50.6844 43.1102C50.6844 47.0716 47.4732 50.2838 43.5129 50.2838C39.5526 50.2838 36.3431 47.0716 36.3431 43.1102ZM32.4663 43.1102C32.4663 49.213 37.4118 54.16 43.5129 54.16C49.614 54.16 54.5595 49.213 54.5595 43.1102C54.5595 37.0074 49.614 32.0604 43.5129 32.0604C37.4118 32.0604 32.4663 37.0074 32.4663 43.1102ZM52.4153 31.6222C52.4151 32.133 52.5663 32.6323 52.8498 33.0571C53.1333 33.4818 53.5363 33.813 54.008 34.0086C54.4796 34.2042 54.9986 34.2556 55.4995 34.1561C56.0003 34.0567 56.4603 33.811 56.8215 33.45C57.1827 33.089 57.4288 32.6289 57.5286 32.1281C57.6284 31.6272 57.5775 31.108 57.3823 30.636C57.1871 30.1641 56.8563 29.7607 56.4319 29.4767C56.0075 29.1928 55.5084 29.0412 54.9979 29.041H54.9968C54.3124 29.0413 53.6562 29.3133 53.1721 29.7973C52.6881 30.2813 52.4159 30.9377 52.4153 31.6222V31.6222ZM34.8217 60.6262C32.7243 60.5307 31.5843 60.1812 30.8267 59.886C29.8223 59.4948 29.1056 59.029 28.3522 58.2763C27.5987 57.5237 27.1323 56.8075 26.743 55.8028C26.4477 55.0454 26.0983 53.9047 26.0029 51.8066C25.8987 49.5384 25.8778 48.857 25.8778 43.1103C25.8778 37.3637 25.9004 36.6842 26.0029 34.414C26.0985 32.316 26.4504 31.1776 26.743 30.4179C27.134 29.4132 27.5997 28.6963 28.3522 27.9426C29.1046 27.189 29.8205 26.7224 30.8267 26.333C31.5839 26.0376 32.7243 25.6881 34.8217 25.5928C37.0893 25.4884 37.7705 25.4676 43.5129 25.4676C49.2553 25.4676 49.9372 25.4902 52.2067 25.5928C54.3041 25.6883 55.4422 26.0404 56.2017 26.333C57.2061 26.7224 57.9228 27.19 58.6762 27.9426C59.4297 28.6953 59.8944 29.4132 60.2854 30.4179C60.5807 31.1753 60.9301 32.316 61.0254 34.414C61.1297 36.6842 61.1506 37.3637 61.1506 43.1103C61.1506 48.857 61.1297 49.5365 61.0254 51.8066C60.9299 53.9047 60.5788 55.045 60.2854 55.8028C59.8944 56.8075 59.4287 57.5244 58.6762 58.2763C57.9238 59.0283 57.2061 59.4948 56.2017 59.886C55.4445 60.1814 54.3041 60.5308 52.2067 60.6262C49.9391 60.7305 49.2579 60.7514 43.5129 60.7514C37.7679 60.7514 37.0886 60.7305 34.8217 60.6262V60.6262ZM34.6436 21.7214C32.3534 21.8257 30.7884 22.189 29.4218 22.7209C28.0064 23.2702 26.8082 24.0072 25.6109 25.203C24.4136 26.3988 23.6787 27.5992 23.1295 29.015C22.5977 30.3829 22.2346 31.9474 22.1303 34.2383C22.0243 36.5327 22 37.2663 22 43.1102C22 48.9541 22.0243 49.6876 22.1303 51.9821C22.2346 54.2731 22.5977 55.8374 23.1295 57.2054C23.6787 58.6203 24.4137 59.8221 25.6109 61.0173C26.808 62.2126 28.0064 62.9486 29.4218 63.4994C30.791 64.0314 32.3534 64.3946 34.6436 64.499C36.9386 64.6033 37.6707 64.6293 43.5129 64.6293C49.3551 64.6293 50.0884 64.605 52.3822 64.499C54.6726 64.3946 56.2365 64.0314 57.604 63.4994C59.0185 62.9486 60.2176 62.2131 61.4149 61.0173C62.6122 59.8216 63.3456 58.6203 63.8963 57.2054C64.4281 55.8374 64.7929 54.2729 64.8955 51.9821C64.9998 49.6859 65.0241 48.9541 65.0241 43.1102C65.0241 37.2663 64.9998 36.5327 64.8955 34.2383C64.7912 31.9473 64.4281 30.3821 63.8963 29.015C63.3456 27.6001 62.6103 26.4007 61.4149 25.203C60.2195 24.0053 59.0185 23.2702 57.6057 22.7209C56.2365 22.189 54.6724 21.824 52.384 21.7214C50.0902 21.6171 49.3568 21.5911 43.5146 21.5911C37.6724 21.5911 36.9386 21.6153 34.6436 21.7214Z" fill="white"/>
<defs>
<linearGradient id="paint0_linear_30_11109" x1="84.8471" y1="86" x2="-1.15292" y2="-2.31488e-06" gradientUnits="userSpaceOnUse">
<stop stop-color="#FBE18A"/>
<stop offset="0.21" stop-color="#FCBB45"/>
<stop offset="0.38" stop-color="#F75274"/>
<stop offset="0.52" stop-color="#D53692"/>
<stop offset="0.74" stop-color="#8F39CE"/>
<stop offset="1" stop-color="#5B4FE9"/>
</linearGradient>
</defs>
</svg>
