<svg width="87" height="86" viewBox="0 0 87 86" fill="none" xmlns="http://www.w3.org/2000/svg">
<rect x="2" y="1.5" width="83" height="83" rx="41.5" fill="#33CCFF" stroke="white" stroke-width="3"/>
<path d="M64.8442 29.3846C63.4242 29.9963 61.9314 30.4222 60.4026 30.6519C61.1173 30.5292 62.169 29.2415 62.5876 28.7203C63.2236 27.9341 63.7083 27.0366 64.0171 26.0734C64.0171 26.0019 64.0886 25.8997 64.0171 25.8486C63.9811 25.8289 63.9407 25.8186 63.8997 25.8186C63.8587 25.8186 63.8183 25.8289 63.7823 25.8486C62.1222 26.7484 60.3555 27.4351 58.5238 27.8925C58.46 27.9121 58.392 27.9138 58.3273 27.8976C58.2625 27.8814 58.2034 27.8479 58.1562 27.8006C58.0137 27.6306 57.8602 27.4702 57.6968 27.3202C56.9497 26.6503 56.1021 26.102 55.185 25.6953C53.947 25.187 52.6097 24.9668 51.2743 25.0515C49.9785 25.1334 48.7134 25.4812 47.5576 26.0734C46.4195 26.6978 45.4193 27.546 44.617 28.567C43.7731 29.618 43.1638 30.8376 42.8301 32.1439C42.555 33.3865 42.5238 34.6707 42.7382 35.9252C42.7382 36.1398 42.7382 36.1705 42.5544 36.1398C35.2743 35.0668 29.3011 32.4812 24.4204 26.9319C24.206 26.6866 24.0937 26.6866 23.9201 26.9319C21.7963 30.1613 22.8276 35.2711 25.4823 37.7954C25.8397 38.1327 26.2073 38.4597 26.5953 38.7663C25.3781 38.6798 24.1906 38.3496 23.1032 37.7954C22.899 37.6626 22.7867 37.7341 22.7765 37.9794C22.7476 38.3194 22.7476 38.6613 22.7765 39.0013C22.9895 40.631 23.6312 42.1747 24.6358 43.4747C25.6405 44.7747 26.9721 45.7844 28.4944 46.4004C28.8655 46.5595 29.2522 46.6794 29.6482 46.7581C28.5214 46.9801 27.3657 47.0146 26.2277 46.8603C25.9826 46.8092 25.8907 46.942 25.9826 47.1771C27.4836 51.2649 30.7408 52.5118 33.13 53.2067C33.4568 53.2578 33.7835 53.2578 34.1511 53.3395C34.1511 53.3395 34.1511 53.3395 34.0898 53.4009C33.3853 54.6885 30.5366 55.5572 29.2296 56.0069C26.8441 56.8645 24.3006 57.1923 21.7759 56.9675C21.3776 56.9062 21.2857 56.9164 21.1836 56.9675C21.0815 57.0186 21.1836 57.131 21.296 57.2332C21.8065 57.5705 22.317 57.8669 22.848 58.153C24.4286 59.0159 26.0997 59.7014 27.8307 60.197C36.7957 62.6701 46.8837 60.851 53.6125 54.1571C58.9016 48.9042 60.7599 41.6584 60.7599 34.4025C60.7599 34.1265 61.0969 33.963 61.2909 33.82C62.629 32.7764 63.8087 31.544 64.7931 30.1613C64.9636 29.9552 65.051 29.6928 65.0382 29.4255V29.4255C65.0382 29.2722 65.0382 29.3029 64.8442 29.3846Z" fill="white"/>
</svg>
