<svg width="87" height="87" viewBox="0 0 87 87" fill="none" xmlns="http://www.w3.org/2000/svg">
<rect x="1.75" y="2.4574" width="83" height="83" rx="41.5" fill="#9146FF" stroke="white" stroke-width="3"/>
<path d="M54.9615 47.0903L48.7619 52.8422H42.5623L37.1376 57.8751V52.8422H30.1631V31.2726H54.9615V47.0903Z" fill="#9146FF"/>
<path d="M33.5319 28.7466L31.6624 30.6162L28.3906 51.6488L38.2058 56.7901L39.608 58.6597L48.9558 55.3879L59.2385 47.4423L59.7058 39.964L59.2385 29.214L57.8363 28.7466H33.5319Z" fill="#9146FF"/>
<path d="M32.4009 27.2726L24.6514 34.4624V60.346H33.9508V67.5358L41.7003 60.346H47.8999L61.8489 47.4042V27.2726H32.4009ZM58.7491 45.9662L52.5496 51.7181H46.35L40.9253 56.751V51.7181H33.9508V30.1485H58.7491V45.9662Z" fill="white"/>
<path d="M54.1008 35.1815H51.001V43.8093H54.1008V35.1815Z" fill="white"/>
<path d="M45.5773 35.1815H42.4775V43.8093H45.5773V35.1815Z" fill="white"/>
</svg>
