<svg width="80" height="80" viewBox="0 0 80 80" fill="none" xmlns="http://www.w3.org/2000/svg">
<rect width="80" height="80" fill="white"/>
<path d="M53.6034 32.5786C53.6034 32.5786 49.3762 45.8488 49.0317 46.9442C48.9065 45.8175 45.8065 22 45.8065 22C38.6045 22 34.7531 27.1328 32.7177 32.5473C32.7177 32.5473 27.5824 45.8488 27.144 46.9755C27.1127 45.9427 26.3612 32.7038 26.3612 32.7038C25.9228 26.0687 19.8481 22.0313 14.932 22.0313L20.8815 58.1175C28.4279 58.0862 32.4985 52.9847 34.6278 47.5702C34.6278 47.5702 39.1682 35.8336 39.3561 35.3015C39.3874 35.8023 42.6126 58.1175 42.6126 58.1175C50.1903 58.1175 54.261 53.3289 56.4529 48.1022L67.068 22.0313C59.5842 22.0313 55.6388 27.1328 53.6034 32.5786Z" fill="#4253FF"/>
</svg>
