<svg width="80" height="80" viewBox="0 0 80 80" fill="none" xmlns="http://www.w3.org/2000/svg">
<rect width="80" height="80" fill="white"/>
<path fill-rule="evenodd" clip-rule="evenodd" d="M56.3104 29.7454C59.8317 29.7454 62.6862 26.8922 62.6862 23.3727C62.6862 19.8532 59.8317 17 56.3104 17C52.7892 17 49.9346 19.8532 49.9346 23.3727C49.9346 26.8922 52.7892 29.7454 56.3104 29.7454Z" fill="#8055FA"/>
<path fill-rule="evenodd" clip-rule="evenodd" d="M56.3101 45.7514C59.8314 45.7514 62.6859 42.8983 62.6859 39.3789C62.6859 35.8594 59.8314 33.0063 56.3101 33.0063C52.7889 33.0063 49.9343 35.8594 49.9343 39.3789C49.9343 42.8983 52.7889 45.7514 56.3101 45.7514Z" fill="#7550FB"/>
<path fill-rule="evenodd" clip-rule="evenodd" d="M56.3101 62.3509C59.8314 62.3509 62.6859 59.4977 62.6859 55.9782C62.6859 52.4586 59.8314 49.6055 56.3101 49.6055C52.7889 49.6055 49.9343 52.4586 49.9343 55.9782C49.9343 59.4977 52.7889 62.3509 56.3101 62.3509Z" fill="#6A4AFC"/>
<path fill-rule="evenodd" clip-rule="evenodd" d="M39.7038 45.7514C43.2249 45.7514 46.0794 42.8983 46.0794 39.3789C46.0794 35.8594 43.2249 33.0063 39.7038 33.0063C36.1826 33.0063 33.3282 35.8594 33.3282 39.3789C33.3282 42.8983 36.1826 45.7514 39.7038 45.7514Z" fill="#6045FD"/>
<path fill-rule="evenodd" clip-rule="evenodd" d="M39.7036 62.3509C43.2247 62.3509 46.0792 59.4977 46.0792 55.9782C46.0792 52.4586 43.2247 49.6055 39.7036 49.6055C36.1824 49.6055 33.3279 52.4586 33.3279 55.9782C33.3279 59.4977 36.1824 62.3509 39.7036 62.3509Z" fill="#553FFE"/>
<path fill-rule="evenodd" clip-rule="evenodd" d="M23.6895 62.3509C27.2108 62.3509 30.0653 59.4977 30.0653 55.9782C30.0653 52.4586 27.2108 49.6055 23.6895 49.6055C20.1683 49.6055 17.3137 52.4586 17.3137 55.9782C17.3137 59.4977 20.1683 62.3509 23.6895 62.3509Z" fill="#4A3AFF"/>
</svg>
