<svg width="32" height="32" viewBox="0 0 32 32" fill="none" xmlns="http://www.w3.org/2000/svg">
<path d="M31 14.7987L21.4512 9.28571C18.4407 7.54759 16.0002 8.95661 16.0002 12.4328L16.0002 18.514L25.549 24.027C28.5595 25.7651 31 24.3561 31 20.8798L31 14.7987Z" fill="#896BFF"/>
<path d="M31 11.751C31 11.16 30.3644 10.5194 30.0294 10.7727L27.3147 12.8248C27.0047 13.0592 27.259 13.8488 27.7326 14.1223L30.4472 15.6895C30.7525 15.8658 30.9999 15.7229 30.9999 15.3704L31 11.751Z" fill="#896BFF"/>
<path d="M1 18.9295C0.999988 19.5661 1.68459 20.256 2.0455 19.9832L4.62421 18.0338C4.95817 17.7814 4.68425 16.9309 4.17413 16.6364L1.59548 15.1476C1.26665 14.9577 1.00007 15.1116 1.00007 15.4913L1 18.9295Z" fill="#52B6FF"/>
<path d="M16 12.6603L6.45121 7.14728C3.4407 5.40917 1.00021 6.81819 1.0002 10.2944L1.0002 16.3756L10.549 21.8886C13.5595 23.6267 16 22.2177 16 18.7414L16 12.6603Z" fill="#52B6FF"/>
</svg>
