<svg width="33" height="32" viewBox="0 0 33 32" fill="none" xmlns="http://www.w3.org/2000/svg">
<path d="M16.502 28C23.1294 28 28.502 22.6274 28.502 16C28.502 9.37258 23.1294 4 16.502 4C9.87454 4 4.50195 9.37258 4.50195 16C4.50195 22.6274 9.87454 28 16.502 28Z" stroke="#0C1230" stroke-width="1.5" stroke-linecap="round" stroke-linejoin="round"/>
<path d="M16.502 20C19.2634 20 21.502 17.7614 21.502 15C21.502 12.2386 19.2634 10 16.502 10C13.7405 10 11.502 12.2386 11.502 15C11.502 17.7614 13.7405 20 16.502 20Z" stroke="#0C1230" stroke-width="1.5" stroke-linecap="round" stroke-linejoin="round"/>
<path d="M8.47852 24.9258C9.2309 23.4438 10.379 22.1991 11.7954 21.3297C13.2119 20.4602 14.8415 20 16.5035 20C18.1655 20 19.7951 20.4602 21.2116 21.3297C22.6281 22.1991 23.7761 23.4438 24.5285 24.9258" stroke="#0C1230" stroke-width="1.5" stroke-linecap="round" stroke-linejoin="round"/>
</svg>
