<svg width="256" height="256" viewBox="0 0 256 256" fill="none" xmlns="http://www.w3.org/2000/svg">
<path d="M248 118.389L171.61 74.2846C147.526 60.3797 128.002 71.6519 128.002 99.4617L128.002 148.111L204.392 192.215C228.476 206.12 248 194.848 248 167.038L248 118.389Z" fill="#896BFF"/>
<path d="M248 94.0062C248 89.2783 242.916 84.1537 240.235 86.18L218.518 102.597C216.037 104.472 218.072 110.789 221.86 112.977L243.577 125.515C246.02 126.925 247.999 125.782 248 122.962L248 94.0062Z" fill="#896BFF"/>
<path d="M8 151.435C7.9999 156.527 13.4767 162.047 16.364 159.865L36.9937 144.27C39.6654 142.25 37.474 135.446 33.393 133.09L12.7638 121.18C10.1332 119.661 8.00059 120.892 8.00053 123.93L8 151.435Z" fill="#52B6FF"/>
<path d="M127.999 101.282L51.6087 57.1783C27.5246 43.2733 8.00066 54.5455 8.00066 82.3554L8.00066 131.005L84.391 175.108C108.475 189.013 127.999 177.741 127.999 149.931L127.999 101.282Z" fill="#52B6FF"/>
</svg>
