<svg width="232" height="49" viewBox="0 0 232 49" fill="none" xmlns="http://www.w3.org/2000/svg">
<path d="M47.6621 22.79L32.4915 14.0313C27.7086 11.2699 23.8313 13.5085 23.8313 19.0313L23.8313 28.6927L39.0018 37.4514C43.7848 40.2128 47.6621 37.9743 47.6621 32.4514L47.6621 22.79Z" fill="#896BFF"/>
<path d="M47.6619 17.9473C47.6619 17.0084 46.6521 15.9907 46.1198 16.3931L41.8069 19.6534C41.3143 20.0258 41.7183 21.2803 42.4707 21.7147L46.7836 24.2047C47.2686 24.4847 47.6618 24.2577 47.6618 23.6977L47.6619 17.9473Z" fill="#896BFF"/>
<path d="M9.48499e-08 29.3528C-1.92712e-05 30.3641 1.08764 31.4603 1.66103 31.0269L5.75795 27.9298C6.28852 27.5287 5.85334 26.1775 5.04288 25.7096L0.946064 23.3443C0.423633 23.0426 0.000116245 23.2872 0.000104693 23.8904L9.48499e-08 29.3528Z" fill="#52B6FF"/>
<path d="M23.8311 19.3926L8.66048 10.6338C3.87755 7.87242 0.000212226 10.111 0.000212105 15.6338L0.000211892 25.2952L15.1708 34.054C19.9537 36.8154 23.8311 34.5768 23.8311 29.054L23.8311 19.3926Z" fill="#52B6FF"/>
<path d="M77.904 12.707V12.643H82.064V35.043H77.904V20.259L71.696 30.659H70.672L64.464 20.259V35.043H60.272V12.643H64.464V12.707L64.56 12.643L71.184 23.811L77.808 12.643L77.904 12.707ZM98.1233 19.043H102.091V35.043H98.1233V33.475C97.3766 34.115 96.5553 34.6163 95.6593 34.979C94.7846 35.3203 93.8566 35.491 92.8753 35.491C91.2539 35.491 89.8353 35.1283 88.6193 34.403C87.4033 33.6776 86.4646 32.675 85.8033 31.395C85.1633 30.115 84.8433 28.675 84.8433 27.075C84.8433 25.475 85.1633 24.035 85.8033 22.755C86.4646 21.475 87.4033 20.4723 88.6193 19.747C89.8353 19.0003 91.2539 18.627 92.8753 18.627C93.8566 18.627 94.7846 18.8083 95.6593 19.171C96.5553 19.5123 97.3766 20.003 98.1233 20.643V19.043ZM93.3873 31.683C94.2619 31.683 95.0513 31.491 95.7553 31.107C96.4806 30.7016 97.0459 30.147 97.4513 29.443C97.8779 28.739 98.0913 27.939 98.0913 27.043C98.0913 25.699 97.6326 24.6003 96.7153 23.747C95.8193 22.8936 94.7099 22.467 93.3873 22.467C92.0433 22.467 90.9339 22.9043 90.0593 23.779C89.2059 24.6323 88.7793 25.731 88.7793 27.075C88.7793 28.419 89.2059 29.5283 90.0593 30.403C90.9339 31.2563 92.0433 31.683 93.3873 31.683ZM115.677 18.723L115.389 22.467C115.261 22.4243 115.037 22.403 114.717 22.403C113.394 22.403 112.296 22.787 111.421 23.555C110.568 24.323 110.141 25.3683 110.141 26.691V35.043H106.173V19.043H110.141V21.731C110.504 20.8776 111.122 20.163 111.997 19.587C112.872 19.011 113.928 18.723 115.165 18.723H115.677ZM134.073 35.043H129.113L124.633 29.059L122.297 31.619V35.043H118.329V12.643H122.297V25.795L128.313 19.043H133.849L127.321 26.147L134.073 35.043ZM142.412 18.627C143.948 18.627 145.324 19.011 146.54 19.779C147.777 20.5256 148.737 21.539 149.42 22.819C150.102 24.099 150.444 25.5176 150.444 27.075C150.444 27.587 150.401 28.0563 150.316 28.483H137.964C138.284 29.6136 138.849 30.499 139.66 31.139C140.47 31.7576 141.505 32.067 142.764 32.067C143.532 32.067 144.268 31.8963 144.972 31.555C145.697 31.2136 146.241 30.7763 146.604 30.243L149.644 32.035C148.897 33.1443 147.926 33.9976 146.732 34.595C145.558 35.171 144.204 35.459 142.668 35.459C140.961 35.459 139.446 35.0963 138.124 34.371C136.801 33.6456 135.777 32.643 135.052 31.363C134.348 30.083 133.996 28.643 133.996 27.043C133.996 25.4643 134.348 24.035 135.052 22.755C135.777 21.475 136.78 20.4723 138.06 19.747C139.34 19.0003 140.79 18.627 142.412 18.627ZM146.732 25.379C146.561 24.355 146.081 23.555 145.292 22.979C144.524 22.3816 143.553 22.083 142.38 22.083C141.569 22.083 140.822 22.2323 140.14 22.531C139.478 22.8296 138.945 23.235 138.54 23.747C138.134 24.259 137.921 24.803 137.9 25.379H146.732ZM158.334 29.571C158.334 30.2963 158.505 30.7976 158.846 31.075C159.187 31.3523 159.731 31.491 160.478 31.491C160.926 31.491 161.417 31.459 161.95 31.395V35.043C160.947 35.1496 160.115 35.203 159.454 35.203C157.747 35.203 156.467 34.819 155.614 34.051C154.782 33.2616 154.366 31.8536 154.366 29.827V22.595H151.358V19.043H154.366V15.107L158.334 13.763V19.043H161.886V22.595H158.334V29.571ZM175.034 19.043H179.002V35.043H175.034V33.699C174.458 34.2323 173.818 34.659 173.114 34.979C172.41 35.299 171.664 35.459 170.874 35.459C169.936 35.459 168.976 35.267 167.994 34.883C167.034 34.4776 166.202 33.763 165.498 32.739C164.816 31.715 164.474 30.339 164.474 28.611V19.043H168.442V28.611C168.442 29.8056 168.773 30.6696 169.434 31.203C170.117 31.715 170.906 31.971 171.802 31.971C172.698 31.971 173.456 31.6616 174.074 31.043C174.714 30.403 175.034 29.3896 175.034 28.003V19.043ZM192.295 18.627C193.916 18.627 195.335 18.9896 196.551 19.715C197.788 20.4403 198.727 21.443 199.367 22.723C200.028 24.003 200.359 25.443 200.359 27.043C200.359 28.643 200.028 30.083 199.367 31.363C198.727 32.643 197.788 33.6563 196.551 34.403C195.335 35.1283 193.916 35.491 192.295 35.491C191.335 35.491 190.407 35.3203 189.51 34.979C188.636 34.6163 187.825 34.115 187.079 33.475V41.443H183.111V19.043H187.079V20.611C187.804 19.971 188.615 19.4803 189.51 19.139C190.407 18.7976 191.335 18.627 192.295 18.627ZM191.815 31.651C193.137 31.651 194.225 31.2243 195.079 30.371C195.953 29.4963 196.391 28.387 196.391 27.043C196.391 25.699 195.953 24.6003 195.079 23.747C194.225 22.8723 193.137 22.435 191.815 22.435C190.94 22.435 190.14 22.6376 189.415 23.043C188.689 23.427 188.113 23.971 187.687 24.675C187.281 25.379 187.079 26.179 187.079 27.075C187.079 28.419 187.527 29.5176 188.423 30.371C189.34 31.2243 190.471 31.651 191.815 31.651ZM223.54 23.811L230.804 35.043H225.812L220.628 27.011L215.444 35.043H210.452L217.716 23.811L210.484 12.643H215.476L220.628 20.611L225.78 12.643H230.772L223.54 23.811Z" fill="#0C1230"/>
</svg>
