<svg width="233" height="49" viewBox="0 0 233 49" fill="none" xmlns="http://www.w3.org/2000/svg">
<path d="M47.918 23.4976L32.7474 14.7389C27.9645 11.9775 24.0871 14.216 24.0871 19.7389L24.0871 29.4003L39.2577 38.159C44.0406 40.9204 47.918 38.6818 47.918 33.159L47.918 23.4976Z" fill="#896BFF"/>
<path d="M47.9178 18.6553C47.9178 17.7164 46.908 16.6987 46.3757 17.1011L42.0627 20.3614C41.5702 20.7338 41.9742 21.9883 42.7266 22.4227L47.0394 24.9127C47.5244 25.1927 47.9176 24.9657 47.9176 24.4057L47.9178 18.6553Z" fill="#896BFF"/>
<path d="M0.255859 30.0602C0.25584 31.0715 1.3435 32.1677 1.91689 31.7343L6.01381 28.6372C6.54438 28.2361 6.10919 26.8849 5.29874 26.417L1.20192 24.0517C0.679492 23.75 0.255976 23.9946 0.255964 24.5978L0.255859 30.0602Z" fill="#52B6FF"/>
<path d="M24.0869 20.0998L8.91634 11.3411C4.13341 8.57963 0.256072 10.8182 0.256071 16.3411L0.256071 26.0024L15.4266 34.7612C20.2096 37.5226 24.0869 35.284 24.0869 29.7612L24.0869 20.0998Z" fill="#52B6FF"/>
<path d="M78.1599 13.414V13.35H82.3199V35.75H78.1599V20.966L71.9519 31.366H70.9279L64.7199 20.966V35.75H60.5279V13.35H64.7199V13.414L64.8159 13.35L71.4399 24.518L78.0639 13.35L78.1599 13.414ZM98.3791 19.75H102.347V35.75H98.3791V34.182C97.6324 34.822 96.8111 35.3233 95.9151 35.686C95.0404 36.0273 94.1124 36.198 93.1311 36.198C91.5098 36.198 90.0911 35.8353 88.8751 35.11C87.6591 34.3847 86.7204 33.382 86.0591 32.102C85.4191 30.822 85.0991 29.382 85.0991 27.782C85.0991 26.182 85.4191 24.742 86.0591 23.462C86.7204 22.182 87.6591 21.1793 88.8751 20.454C90.0911 19.7073 91.5098 19.334 93.1311 19.334C94.1124 19.334 95.0404 19.5153 95.9151 19.878C96.8111 20.2193 97.6324 20.71 98.3791 21.35V19.75ZM93.6431 32.39C94.5178 32.39 95.3071 32.198 96.0111 31.814C96.7364 31.4087 97.3018 30.854 97.7071 30.15C98.1338 29.446 98.3471 28.646 98.3471 27.75C98.3471 26.406 97.8884 25.3073 96.9711 24.454C96.0751 23.6007 94.9658 23.174 93.6431 23.174C92.2991 23.174 91.1898 23.6113 90.3151 24.486C89.4618 25.3393 89.0351 26.438 89.0351 27.782C89.0351 29.126 89.4618 30.2353 90.3151 31.11C91.1898 31.9633 92.2991 32.39 93.6431 32.39ZM115.933 19.43L115.645 23.174C115.517 23.1313 115.293 23.11 114.973 23.11C113.65 23.11 112.552 23.494 111.677 24.262C110.824 25.03 110.397 26.0753 110.397 27.398V35.75H106.429V19.75H110.397V22.438C110.76 21.5847 111.378 20.87 112.253 20.294C113.128 19.718 114.184 19.43 115.421 19.43H115.933ZM134.329 35.75H129.369L124.889 29.766L122.553 32.326V35.75H118.585V13.35H122.553V26.502L128.569 19.75H134.105L127.577 26.854L134.329 35.75ZM142.668 19.334C144.204 19.334 145.58 19.718 146.796 20.486C148.033 21.2327 148.993 22.246 149.676 23.526C150.358 24.806 150.7 26.2247 150.7 27.782C150.7 28.294 150.657 28.7633 150.572 29.19H138.22C138.54 30.3207 139.105 31.206 139.916 31.846C140.726 32.4647 141.761 32.774 143.02 32.774C143.788 32.774 144.524 32.6033 145.228 32.262C145.953 31.9207 146.497 31.4833 146.86 30.95L149.9 32.742C149.153 33.8513 148.182 34.7047 146.988 35.302C145.814 35.878 144.46 36.166 142.924 36.166C141.217 36.166 139.702 35.8033 138.38 35.078C137.057 34.3527 136.033 33.35 135.308 32.07C134.604 30.79 134.252 29.35 134.252 27.75C134.252 26.1713 134.604 24.742 135.308 23.462C136.033 22.182 137.036 21.1793 138.316 20.454C139.596 19.7073 141.046 19.334 142.668 19.334ZM146.988 26.086C146.817 25.062 146.337 24.262 145.548 23.686C144.78 23.0887 143.809 22.79 142.636 22.79C141.825 22.79 141.078 22.9393 140.396 23.238C139.734 23.5367 139.201 23.942 138.796 24.454C138.39 24.966 138.177 25.51 138.156 26.086H146.988ZM158.59 30.278C158.59 31.0033 158.761 31.5047 159.102 31.782C159.443 32.0593 159.987 32.198 160.734 32.198C161.182 32.198 161.673 32.166 162.206 32.102V35.75C161.203 35.8567 160.371 35.91 159.71 35.91C158.003 35.91 156.723 35.526 155.87 34.758C155.038 33.9687 154.622 32.5607 154.622 30.534V23.302H151.614V19.75H154.622V15.814L158.59 14.47V19.75H162.142V23.302H158.59V30.278ZM175.29 19.75H179.258V35.75H175.29V34.406C174.714 34.9393 174.074 35.366 173.37 35.686C172.666 36.006 171.919 36.166 171.13 36.166C170.191 36.166 169.231 35.974 168.25 35.59C167.29 35.1847 166.458 34.47 165.754 33.446C165.071 32.422 164.73 31.046 164.73 29.318V19.75H168.698V29.318C168.698 30.5127 169.029 31.3767 169.69 31.91C170.373 32.422 171.162 32.678 172.058 32.678C172.954 32.678 173.711 32.3687 174.33 31.75C174.97 31.11 175.29 30.0967 175.29 28.71V19.75ZM192.55 19.334C194.172 19.334 195.59 19.6967 196.806 20.422C198.044 21.1473 198.982 22.15 199.622 23.43C200.284 24.71 200.614 26.15 200.614 27.75C200.614 29.35 200.284 30.79 199.622 32.07C198.982 33.35 198.044 34.3633 196.806 35.11C195.59 35.8353 194.172 36.198 192.55 36.198C191.59 36.198 190.662 36.0273 189.766 35.686C188.892 35.3233 188.081 34.822 187.334 34.182V42.15H183.366V19.75H187.334V21.318C188.06 20.678 188.87 20.1873 189.766 19.846C190.662 19.5047 191.59 19.334 192.55 19.334ZM192.07 32.358C193.393 32.358 194.481 31.9313 195.334 31.078C196.209 30.2033 196.646 29.094 196.646 27.75C196.646 26.406 196.209 25.3073 195.334 24.454C194.481 23.5793 193.393 23.142 192.07 23.142C191.196 23.142 190.396 23.3447 189.67 23.75C188.945 24.134 188.369 24.678 187.942 25.382C187.537 26.086 187.334 26.886 187.334 27.782C187.334 29.126 187.782 30.2247 188.678 31.078C189.596 31.9313 190.726 32.358 192.07 32.358ZM223.796 24.518L231.06 35.75H226.068L220.884 27.718L215.7 35.75H210.708L217.972 24.518L210.74 13.35H215.732L220.884 21.318L226.036 13.35H231.028L223.796 24.518Z" fill="#0C1230"/>
</svg>
