<svg width="112" height="37" viewBox="0 0 112 37" fill="none" xmlns="http://www.w3.org/2000/svg">
<path d="M13.756 0H14.7493C18.1975 0.075763 21.5896 1.47738 24.0258 3.95862C23.1263 4.88671 22.208 5.77693 21.3272 6.70503C19.9591 5.45494 18.31 4.48896 16.5109 4.14802C13.8498 3.5798 10.9825 4.0912 8.75235 5.6254C6.31608 7.23537 4.66692 9.96284 4.31085 12.8797C3.9173 15.7587 4.72314 18.7892 6.57845 21.0242C8.35879 23.2024 11.0762 24.5662 13.8872 24.6609C16.5109 24.8124 19.247 23.9979 21.1585 22.1417C22.6578 20.8348 23.3512 18.846 23.5761 16.9141C20.4651 16.9141 17.3542 16.933 14.2433 16.9141V13.0123H27.3429C28.0175 17.1982 27.043 21.9144 23.8946 24.9071C21.7957 27.0285 18.8909 28.2785 15.9299 28.5248C13.0627 28.8089 10.1017 28.2596 7.55295 26.858C4.49826 25.2101 2.062 22.4258 0.862607 19.1491C-0.261821 16.1375 -0.280562 12.7282 0.768905 9.69767C1.72467 6.93231 3.56123 4.48896 5.92253 2.78429C8.19013 1.09856 10.945 0.170467 13.756 0Z" fill="#464D6A"/>
<path d="M88.9062 0.985016H92.9167V28.0324C91.5861 28.0324 90.2368 28.0513 88.9062 28.0134C88.925 19.0166 88.9062 10.0008 88.9062 0.985016Z" fill="#464D6A"/>
<path d="M36.2625 10.3607C38.7362 9.88722 41.4161 10.4176 43.4588 11.9139C45.3141 13.2397 46.6072 15.3232 47.0008 17.596C47.5068 20.2288 46.8696 23.1078 45.183 25.1912C43.3651 27.5209 40.3854 28.771 37.4806 28.5816C34.8195 28.4301 32.2333 27.0853 30.6591 24.8882C28.8787 22.4638 28.4477 19.1302 29.4222 16.2891C30.3967 13.2397 33.1516 10.91 36.2625 10.3607ZM36.8247 13.9595C35.8127 14.2246 34.8757 14.8118 34.201 15.6452C32.3832 17.8423 32.4956 21.4221 34.5009 23.4676C35.644 24.642 37.3682 25.1912 38.9611 24.8692C40.4416 24.6041 41.7347 23.6002 42.4468 22.2744C43.6837 20.0204 43.3276 16.9142 41.4349 15.1527C40.2167 14.0163 38.4364 13.5428 36.8247 13.9595Z" fill="#464D6A"/>
<path d="M56.1267 10.3606C58.9565 9.81129 62.0487 10.6068 64.1664 12.6145C67.6146 15.7398 67.9894 21.5925 65.0472 25.1912C63.2668 27.4641 60.3808 28.7142 57.5322 28.5816C54.8149 28.5058 52.135 27.1421 50.5233 24.8882C48.7055 22.4069 48.3119 18.9976 49.3426 16.0996C50.3734 13.1449 53.072 10.8909 56.1267 10.3606ZM56.6889 13.9593C55.6769 14.2245 54.7399 14.8117 54.0652 15.6261C52.2662 17.7854 52.3411 21.3083 54.2714 23.3729C55.4146 24.604 57.1949 25.2102 58.8441 24.8692C60.3058 24.5851 61.6177 23.6002 62.3298 22.2743C63.5479 20.0014 63.1919 16.8951 61.2803 15.1337C60.0622 13.9972 58.2819 13.5426 56.6889 13.9593Z" fill="#464D6A"/>
<path d="M72.9756 11.4592C75.1307 10.0955 77.998 9.71669 80.3218 10.891C81.0527 11.213 81.6524 11.7623 82.2334 12.3116C82.2521 11.8002 82.2334 11.2698 82.2521 10.7395C83.5077 10.7584 84.7633 10.7395 86.0377 10.7584V27.4641C86.0189 29.9833 85.3818 32.6539 83.5827 34.4911C81.6149 36.5178 78.5977 37.1428 75.8803 36.7261C72.9756 36.2905 70.4456 34.1502 69.3212 31.4417C70.4456 30.8924 71.6262 30.4568 72.7881 29.9454C73.4441 31.4985 74.7746 32.8244 76.4425 33.1274C78.1104 33.4305 80.0407 33.0138 81.1277 31.6122C82.2896 30.1727 82.2896 28.2028 82.2334 26.4413C81.3713 27.2937 80.378 28.0513 79.1787 28.3354C76.5737 29.0741 73.7064 28.1649 71.7012 26.3845C69.6772 24.6041 68.4778 21.8577 68.5903 19.1302C68.6465 16.0429 70.3706 13.0692 72.9756 11.4592ZM76.8548 13.8836C75.7117 14.0731 74.6435 14.717 73.9126 15.6073C72.151 17.7286 72.151 21.119 73.9313 23.2025C74.9433 24.4336 76.5737 25.1155 78.1479 24.945C79.6284 24.7935 80.9965 23.8465 81.7274 22.5396C82.9642 20.3235 82.7581 17.3119 81.0902 15.38C80.0595 14.1867 78.4103 13.5995 76.8548 13.8836Z" fill="#464D6A"/>
<path d="M97.7291 12.4252C99.978 10.3038 103.445 9.58409 106.331 10.7016C109.067 11.7433 110.81 14.3761 111.691 17.0846C107.624 18.7893 103.576 20.475 99.5095 22.1797C100.072 23.2593 100.934 24.2442 102.096 24.642C103.726 25.2291 105.675 25.0208 107.043 23.9222C107.587 23.5055 108.018 22.9562 108.43 22.4259C109.461 23.1267 110.491 23.8086 111.522 24.5094C110.06 26.7255 107.605 28.2786 104.963 28.5248C102.039 28.8847 98.9285 27.7483 97.0357 25.4375C93.9248 21.8009 94.2247 15.7019 97.7291 12.4252ZM99.7344 15.9292C99.0972 16.8573 98.8348 17.9938 98.8536 19.1113C101.571 17.9748 104.288 16.8384 107.006 15.683C106.556 14.6223 105.469 13.9783 104.363 13.8079C102.583 13.4859 100.728 14.4519 99.7344 15.9292Z" fill="#464D6A"/>
</svg>
