<svg width="109" height="37" viewBox="0 0 109 37" fill="none" xmlns="http://www.w3.org/2000/svg">
<path d="M104.026 7.01769H99.2734V0.363892H88.8374L84.0381 7.01769H75.5099L72.6582 9.86932V7.01769H66.0044V0.363892H45.0925V7.01769H15.6732L10.873 0.363892H0.416992V23.1769L13.7246 36.4845H27.0322V32.6823L30.8344 36.4845H56.499V32.6823L60.3012 36.4845H72.6582V32.6823L76.4604 36.4845H100.224L108.779 27.9296V11.7704L104.026 7.01769ZM16.5762 16.5231H9.92242V18.4242H16.5762V26.0285H6.12025L2.31808 22.2264V2.26498H9.92242V8.91877H16.5762V16.5231ZM45.0925 26.0285H22.2795L18.4773 22.2264V8.91877H26.0816V18.4242H27.9827V8.91877H35.5871V18.4242H37.4882V8.91877H45.0925V26.0285ZM54.5979 26.0285H46.9936V8.91877H54.5979V26.0285ZM54.5979 7.01769H46.9936V2.26498H54.5979V7.01769ZM70.7571 16.5231H64.1033V18.4242H70.7571V26.0285H60.3012L56.499 22.2264V2.26498H64.1033V8.91877H70.7571V16.5231ZM87.8669 16.5231H80.2626V18.4242H87.8669V26.0285H76.4604L72.6582 22.2264V12.7209L76.4604 8.91877H87.8669V16.5231ZM106.878 26.0285H99.2734V16.5231H97.3723V26.0285H89.768V2.26498H97.3723V8.91877H103.076L106.878 12.7209V26.0285Z" fill="#464D6A"/>
</svg>
