<svg width="65" height="65" viewBox="0 0 65 65" fill="none" xmlns="http://www.w3.org/2000/svg">
<circle cx="32.7578" cy="32.0176" r="32" fill="#896BFF" fill-opacity="0.6"/>
<circle cx="32.7578" cy="32.0176" r="31.5" stroke="url(#paint0_linear_31_25347)" stroke-opacity="0.3"/>
<mask id="mask0_31_25347" style="mask-type:alpha" maskUnits="userSpaceOnUse" x="0" y="0" width="65" height="65">
<circle cx="32.7578" cy="32.0176" r="32" fill="#896BFF"/>
<circle cx="32.7578" cy="32.0176" r="31.5" stroke="url(#paint1_linear_31_25347)" stroke-opacity="0.3"/>
</mask>
<g mask="url(#mask0_31_25347)">
<rect x="5.75781" y="44.0195" width="15.1724" height="23.646" rx="3" fill="url(#paint2_linear_31_25347)"/>
<rect x="25.1719" y="34.2501" width="15.1724" height="33.4159" rx="3" fill="url(#paint3_linear_31_25347)"/>
<rect x="44.5859" y="27.666" width="15.1724" height="40" rx="3" fill="url(#paint4_linear_31_25347)"/>
<circle cx="23.7578" cy="26.0176" r="12" fill="#896BFF"/>
<path d="M23.0078 30.5176C25.9073 30.5176 28.2578 28.1671 28.2578 25.2676C28.2578 22.3681 25.9073 20.0176 23.0078 20.0176C20.1083 20.0176 17.7578 22.3681 17.7578 25.2676C17.7578 28.1671 20.1083 30.5176 23.0078 30.5176Z" stroke="white" stroke-width="1.2" stroke-linecap="round" stroke-linejoin="round"/>
<path d="M26.7188 28.9805L29.7563 32.018" stroke="white" stroke-width="1.2" stroke-linecap="round" stroke-linejoin="round"/>
</g>
<defs>
<linearGradient id="paint0_linear_31_25347" x1="32.7578" y1="0.0175781" x2="32.7578" y2="64.0176" gradientUnits="userSpaceOnUse">
<stop stop-color="#663AE7" stop-opacity="0"/>
<stop offset="1" stop-color="#663AE7"/>
</linearGradient>
<linearGradient id="paint1_linear_31_25347" x1="32.7578" y1="0.0175781" x2="32.7578" y2="64.0176" gradientUnits="userSpaceOnUse">
<stop stop-color="#663AE7" stop-opacity="0"/>
<stop offset="1" stop-color="#663AE7"/>
</linearGradient>
<linearGradient id="paint2_linear_31_25347" x1="13.344" y1="44.0195" x2="13.344" y2="67.6656" gradientUnits="userSpaceOnUse">
<stop stop-color="white"/>
<stop offset="1" stop-color="#F9FAFF"/>
</linearGradient>
<linearGradient id="paint3_linear_31_25347" x1="32.7581" y1="34.2501" x2="32.7581" y2="67.6661" gradientUnits="userSpaceOnUse">
<stop stop-color="white"/>
<stop offset="1" stop-color="#F9FAFF"/>
</linearGradient>
<linearGradient id="paint4_linear_31_25347" x1="52.1721" y1="27.666" x2="52.1721" y2="67.666" gradientUnits="userSpaceOnUse">
<stop stop-color="white"/>
<stop offset="1" stop-color="#F9FAFF"/>
</linearGradient>
</defs>
</svg>
