<svg width="138" height="27" viewBox="0 0 138 27" fill="none" xmlns="http://www.w3.org/2000/svg">
<path d="M9.35231 26.3837H4.20075V13.4043H0.691406V9.1784H4.20061V6.17141C4.20061 2.60812 5.75274 0.0525513 10.8904 0.0525513C11.977 0.0525513 13.6829 0.27391 13.6829 0.27391V4.19784H11.8911C10.0654 4.19784 9.35259 4.75911 9.35259 6.31083V9.1784H13.6145L13.235 13.4043H9.35245L9.35231 26.3837ZM21.1727 8.8407C21.0977 8.8407 21.0204 8.84347 20.944 8.8454C16.1672 8.8454 13.9816 12.477 13.9816 17.632C13.9816 24.126 16.8166 26.7251 20.9813 26.7251C23.3641 26.7251 24.9296 25.7115 25.8812 23.8198V26.3855H30.7811V9.1802H25.8812V11.8261C25.1042 10.1238 23.495 8.86088 21.1727 8.8407ZM22.4186 12.9063C24.4249 12.9063 25.6291 14.3206 25.6291 16.7264L25.6337 19.1836C25.6337 20.8051 24.6391 22.7021 22.4186 22.7021C19.0048 22.7021 19.096 18.9766 19.096 17.7358C19.096 13.5619 20.9149 12.9063 22.4186 12.9063ZM32.7599 17.7837C32.7599 15.693 32.6609 8.85189 41.4796 8.85189C45.0195 8.85189 46.4977 9.9895 46.4977 9.9895L45.3096 13.7138C45.3096 13.7138 43.8334 12.8922 41.9098 12.8922C39.4461 12.8922 37.874 14.3357 37.874 16.8755L37.8767 18.6967C37.8767 21.1371 39.3936 22.7662 41.9149 22.7662C43.6673 22.7662 45.2824 21.9369 45.2824 21.9369L46.4675 25.5834C46.4675 25.5834 45.1159 26.7282 41.5043 26.7282C33.1075 26.7282 32.76 20.5904 32.76 17.7837H32.7599ZM75.2274 8.8454C80.0044 8.8454 82.2244 12.477 82.2244 17.632C82.2244 24.126 79.3893 26.7251 75.2246 26.7251C72.8418 26.7251 71.0803 25.7116 70.1288 23.8198V26.3855L65.2906 26.3836V0.575687L70.4275 0.122883V11.593C71.1689 9.5863 73.6054 8.8454 75.2276 8.8454H75.2274ZM73.7873 12.9063C71.781 12.9063 70.4275 14.3206 70.4275 16.7264L70.4227 19.1836C70.4197 20.8051 71.36 22.7021 73.7873 22.7021C77.2011 22.7021 77.1099 18.9766 77.1099 17.7358C77.1099 13.5619 75.2911 12.9063 73.7873 12.9063ZM55.4107 8.85963C49.9927 8.85963 47.1323 11.8452 47.1323 17.1509V18.1367C47.1323 25.0229 51.1492 26.7959 55.938 26.7959C60.5928 26.7959 62.6997 25.48 62.6997 25.48L61.7384 21.9759C61.7384 21.9759 59.2601 23.0416 56.5539 23.0416C53.7485 23.0416 52.542 22.319 52.2328 19.5941H63.1104V16.7829C63.1104 11.0276 59.9002 8.85949 55.4106 8.85949L55.4107 8.85963ZM55.5413 12.3685C57.4167 12.3685 58.632 13.5308 58.5653 16.2265H52.2422C52.3518 13.3893 53.6624 12.3686 55.5413 12.3686V12.3685ZM92.4672 8.83601C86.9033 8.83601 83.9742 12.0049 83.9742 17.6838C83.9742 25.4756 89.0234 26.7298 92.4765 26.7298C97.5317 26.7298 100.895 23.9792 100.895 17.7546C100.895 11.2759 97.1133 8.83601 92.4672 8.83601ZM92.3972 12.9204C94.8437 12.9204 95.8132 14.771 95.8132 16.8775V18.6885C95.8132 21.2404 94.4567 22.7164 92.3879 22.7164C90.4531 22.7164 89.0934 21.3357 89.0934 18.6885V16.8775C89.0934 14.0542 90.7114 12.9204 92.3972 12.9204ZM111.129 8.83601C105.565 8.83601 102.636 12.0049 102.636 17.6838C102.636 25.4756 107.685 26.7298 111.138 26.7298C116.193 26.7298 119.556 23.9792 119.556 17.7546C119.556 11.2759 115.775 8.83601 111.129 8.83601ZM111.059 12.9204C113.505 12.9204 114.474 14.771 114.474 16.8775V18.6885C114.474 21.2404 113.118 22.7164 111.049 22.7164C109.114 22.7164 107.755 21.3357 107.755 18.6885V16.8775C107.755 14.0542 109.373 12.9204 111.059 12.9204ZM121.497 26.3837V0.575687L126.649 0.122883V17.421L131.761 9.1784H137.201L131.869 17.7154L137.407 26.3837H131.95L126.649 17.9668V26.3837H121.497Z" fill="#464D6A"/>
</svg>
