<svg width="187" height="94" viewBox="0 0 187 94" fill="none" xmlns="http://www.w3.org/2000/svg">
<rect width="187" height="94" fill="white"/>
<circle cx="44" cy="44" r="16" fill="#52B6FF"/>
<path d="M50.3096 39.625H37.6846C37.5308 39.6257 37.3826 39.6824 37.2676 39.7845C37.1525 39.8866 37.0786 40.0271 37.0596 40.1797L35.9503 50.1797C35.9404 50.2668 35.949 50.355 35.9754 50.4386C36.0019 50.5222 36.0457 50.5993 36.1039 50.6649C36.1621 50.7305 36.2334 50.7831 36.3133 50.8193C36.3932 50.8555 36.4798 50.8745 36.5674 50.875H51.4268C51.5145 50.8745 51.6011 50.8555 51.681 50.8193C51.7608 50.7831 51.8322 50.7305 51.8904 50.6649C51.9486 50.5993 51.9924 50.5222 52.0188 50.4386C52.0453 50.355 52.0539 50.2668 52.044 50.1797L50.9346 40.1797C50.9156 40.0271 50.8417 39.8866 50.7267 39.7845C50.6117 39.6824 50.4634 39.6257 50.3096 39.625V39.625Z" fill="white" stroke="white" stroke-width="1.2" stroke-linecap="round" stroke-linejoin="round"/>
<path d="M40.875 42.125V39.625C40.875 38.7962 41.2042 38.0013 41.7903 37.4153C42.3763 36.8292 43.1712 36.5 44 36.5C44.8288 36.5 45.6237 36.8292 46.2097 37.4153C46.7958 38.0013 47.125 38.7962 47.125 39.625V42.125" stroke="white" stroke-width="1.2" stroke-linecap="round" stroke-linejoin="round"/>
<path d="M76.466 54.2C77.026 54.2 77.544 54.34 78.02 54.62C78.496 54.8907 78.8693 55.264 79.14 55.74C79.42 56.2067 79.56 56.72 79.56 57.28C79.56 57.84 79.42 58.358 79.14 58.834C78.8693 59.31 78.496 59.688 78.02 59.968C77.544 60.2387 77.026 60.374 76.466 60.374H74.38V64H73.106V54.2H76.466ZM76.466 59.156C76.802 59.156 77.1147 59.072 77.404 58.904C77.6933 58.736 77.922 58.5073 78.09 58.218C78.258 57.9287 78.342 57.616 78.342 57.28C78.342 56.944 78.258 56.636 78.09 56.356C77.922 56.0667 77.6933 55.838 77.404 55.67C77.1147 55.502 76.802 55.418 76.466 55.418H74.38V59.156H76.466ZM84.4084 56.846C84.5204 56.846 84.6044 56.8507 84.6604 56.86L84.5624 58.008C84.4504 57.9893 84.3617 57.98 84.2964 57.98C83.699 57.98 83.195 58.162 82.7844 58.526C82.383 58.89 82.1824 59.4173 82.1824 60.108V64H80.9784V57H82.1824V58.204C82.341 57.8213 82.6117 57.4993 82.9944 57.238C83.3864 56.9767 83.8577 56.846 84.4084 56.846ZM88.6281 64.168C87.9654 64.168 87.3541 64.0047 86.7941 63.678C86.2341 63.3513 85.7861 62.908 85.4501 62.348C85.1234 61.7787 84.9601 61.1627 84.9601 60.5C84.9601 59.8373 85.1234 59.226 85.4501 58.666C85.7861 58.106 86.2341 57.6627 86.7941 57.336C87.3541 57.0093 87.9654 56.846 88.6281 56.846C89.2907 56.846 89.9021 57.0093 90.4621 57.336C91.0221 57.6627 91.4654 58.106 91.7921 58.666C92.1281 59.226 92.2961 59.8373 92.2961 60.5C92.2961 61.1627 92.1281 61.7787 91.7921 62.348C91.4654 62.908 91.0221 63.3513 90.4621 63.678C89.9021 64.0047 89.2907 64.168 88.6281 64.168ZM88.6281 62.964C89.0761 62.964 89.4867 62.8567 89.8601 62.642C90.2334 62.418 90.5274 62.1193 90.7421 61.746C90.9661 61.3633 91.0781 60.948 91.0781 60.5C91.0781 60.052 90.9661 59.6413 90.7421 59.268C90.5274 58.8947 90.2334 58.6007 89.8601 58.386C89.4867 58.162 89.0761 58.05 88.6281 58.05C88.1801 58.05 87.7647 58.162 87.3821 58.386C87.0087 58.6007 86.7101 58.8947 86.4861 59.268C86.2714 59.6413 86.1641 60.052 86.1641 60.5C86.1641 60.948 86.2714 61.3633 86.4861 61.746C86.7101 62.1193 87.0087 62.418 87.3821 62.642C87.7647 62.8567 88.1801 62.964 88.6281 62.964ZM99.3105 54.2H100.515V64H99.3105V62.95C98.9838 63.3327 98.5918 63.636 98.1345 63.86C97.6865 64.0747 97.2058 64.182 96.6925 64.182C96.0112 64.182 95.3998 64.0233 94.8585 63.706C94.3172 63.3793 93.8972 62.936 93.5985 62.376C93.2998 61.816 93.1505 61.1953 93.1505 60.514C93.1505 59.8233 93.2998 59.2027 93.5985 58.652C93.8972 58.092 94.3125 57.6533 94.8445 57.336C95.3858 57.0093 96.0018 56.846 96.6925 56.846C97.2058 56.846 97.6865 56.958 98.1345 57.182C98.5918 57.3967 98.9838 57.6953 99.3105 58.078V54.2ZM96.8185 63.02C97.2758 63.02 97.6958 62.9127 98.0785 62.698C98.4612 62.474 98.7598 62.1707 98.9745 61.788C99.1985 61.4053 99.3105 60.976 99.3105 60.5C99.3105 60.0333 99.1985 59.6133 98.9745 59.24C98.7598 58.8573 98.4612 58.5587 98.0785 58.344C97.6958 58.1293 97.2758 58.022 96.8185 58.022C96.3612 58.022 95.9458 58.1293 95.5725 58.344C95.1992 58.5587 94.9052 58.8573 94.6905 59.24C94.4758 59.6227 94.3685 60.0473 94.3685 60.514C94.3685 60.99 94.4758 61.4193 94.6905 61.802C94.9052 62.1753 95.1992 62.474 95.5725 62.698C95.9458 62.9127 96.3612 63.02 96.8185 63.02ZM106.914 57H108.118V64H106.914V63.174C106.662 63.4727 106.359 63.7153 106.004 63.902C105.65 64.0793 105.262 64.168 104.842 64.168C104.432 64.168 104.012 64.084 103.582 63.916C103.153 63.7387 102.784 63.4307 102.476 62.992C102.168 62.544 102.014 61.942 102.014 61.186V57H103.218V61.186C103.218 61.8673 103.405 62.3573 103.778 62.656C104.161 62.9453 104.6 63.09 105.094 63.09C105.58 63.09 106.004 62.922 106.368 62.586C106.732 62.2407 106.914 61.6807 106.914 60.906V57ZM116.028 62.642C115.692 63.1087 115.262 63.482 114.74 63.762C114.226 64.0327 113.666 64.168 113.06 64.168C112.397 64.168 111.786 64.0047 111.226 63.678C110.666 63.3513 110.218 62.908 109.882 62.348C109.555 61.7787 109.392 61.1627 109.392 60.5C109.392 59.8373 109.555 59.226 109.882 58.666C110.218 58.106 110.666 57.6627 111.226 57.336C111.786 57.0093 112.397 56.846 113.06 56.846C113.657 56.846 114.212 56.9813 114.726 57.252C115.239 57.5227 115.668 57.8867 116.014 58.344L115.02 59.016C114.777 58.708 114.488 58.47 114.152 58.302C113.816 58.134 113.452 58.05 113.06 58.05C112.612 58.05 112.201 58.162 111.828 58.386C111.454 58.6007 111.156 58.8947 110.932 59.268C110.717 59.6413 110.61 60.052 110.61 60.5C110.61 60.948 110.717 61.3633 110.932 61.746C111.156 62.1193 111.454 62.418 111.828 62.642C112.201 62.8567 112.612 62.964 113.06 62.964C113.452 62.964 113.816 62.88 114.152 62.712C114.497 62.5347 114.786 62.292 115.02 61.984L116.028 62.642ZM119.267 61.816C119.267 62.2453 119.346 62.544 119.505 62.712C119.673 62.8707 119.939 62.95 120.303 62.95C120.415 62.95 120.648 62.9313 121.003 62.894V64C120.602 64.0467 120.266 64.07 119.995 64.07C119.332 64.07 118.842 63.9113 118.525 63.594C118.217 63.2767 118.063 62.7073 118.063 61.886V58.106H116.509V57H118.063V55.096L119.267 54.662V57H120.975V58.106H119.267V61.816ZM127.198 58.918C127.198 59.1887 127.324 59.3847 127.576 59.506C127.838 59.6273 128.253 59.758 128.822 59.898C129.373 60.0287 129.821 60.1593 130.166 60.29C130.521 60.4207 130.82 60.626 131.062 60.906C131.314 61.186 131.44 61.564 131.44 62.04C131.44 62.684 131.174 63.202 130.642 63.594C130.11 63.9767 129.443 64.168 128.64 64.168C127.922 64.168 127.315 64.028 126.82 63.748C126.326 63.468 125.966 63.076 125.742 62.572L126.736 62.054C126.886 62.4273 127.124 62.7073 127.45 62.894C127.777 63.0713 128.174 63.16 128.64 63.16C129.079 63.16 129.457 63.062 129.774 62.866C130.101 62.67 130.264 62.3993 130.264 62.054C130.264 61.8393 130.185 61.662 130.026 61.522C129.877 61.382 129.686 61.2747 129.452 61.2C129.228 61.1253 128.906 61.032 128.486 60.92C127.954 60.7893 127.52 60.6633 127.184 60.542C126.858 60.4113 126.573 60.22 126.33 59.968C126.097 59.716 125.98 59.3753 125.98 58.946C125.98 58.5353 126.097 58.1713 126.33 57.854C126.564 57.5273 126.881 57.2753 127.282 57.098C127.684 56.9207 128.132 56.832 128.626 56.832C129.214 56.832 129.732 56.958 130.18 57.21C130.638 57.462 130.988 57.812 131.23 58.26L130.236 58.764C130.096 58.4653 129.891 58.2367 129.62 58.078C129.35 57.91 129.018 57.826 128.626 57.826C128.188 57.826 127.838 57.9287 127.576 58.134C127.324 58.33 127.198 58.5913 127.198 58.918ZM138.453 57H139.671V64H138.453V62.95C138.126 63.3327 137.734 63.636 137.277 63.86C136.829 64.0747 136.348 64.182 135.835 64.182C135.154 64.182 134.542 64.0233 134.001 63.706C133.46 63.3793 133.04 62.936 132.741 62.376C132.442 61.816 132.293 61.1953 132.293 60.514C132.293 59.8233 132.442 59.2027 132.741 58.652C133.04 58.092 133.455 57.6533 133.987 57.336C134.528 57.0093 135.144 56.846 135.835 56.846C136.348 56.846 136.829 56.958 137.277 57.182C137.734 57.3967 138.126 57.6953 138.453 58.078V57ZM135.961 63.02C136.418 63.02 136.838 62.9127 137.221 62.698C137.604 62.474 137.902 62.1707 138.117 61.788C138.341 61.4053 138.453 60.976 138.453 60.5C138.453 60.0333 138.341 59.6133 138.117 59.24C137.902 58.8573 137.604 58.5587 137.221 58.344C136.838 58.1293 136.418 58.022 135.961 58.022C135.504 58.022 135.088 58.1293 134.715 58.344C134.342 58.5587 134.048 58.8573 133.833 59.24C133.618 59.6227 133.511 60.0473 133.511 60.514C133.511 60.99 133.618 61.4193 133.833 61.802C134.048 62.1753 134.342 62.474 134.715 62.698C135.088 62.9127 135.504 63.02 135.961 63.02ZM142.612 62.516C142.612 62.6747 142.645 62.7867 142.71 62.852C142.785 62.908 142.897 62.936 143.046 62.936C143.13 62.936 143.209 62.9313 143.284 62.922C143.359 62.9127 143.429 62.9033 143.494 62.894V64C143.195 64.0467 142.943 64.07 142.738 64.07C142.318 64.07 141.991 63.9627 141.758 63.748C141.525 63.524 141.408 63.1367 141.408 62.586V54.2H142.612V62.516ZM147.759 56.832C148.44 56.832 149.047 57 149.579 57.336C150.111 57.6627 150.522 58.1107 150.811 58.68C151.11 59.24 151.259 59.8513 151.259 60.514C151.259 60.5887 151.254 60.6727 151.245 60.766C151.236 60.85 151.226 60.92 151.217 60.976H145.323C145.416 61.6013 145.687 62.1147 146.135 62.516C146.592 62.908 147.171 63.104 147.871 63.104C148.3 63.104 148.706 63.006 149.089 62.81C149.481 62.614 149.77 62.3713 149.957 62.082L150.909 62.642C150.601 63.1273 150.181 63.5053 149.649 63.776C149.126 64.0373 148.529 64.168 147.857 64.168C147.12 64.168 146.466 64.0093 145.897 63.692C145.328 63.3747 144.884 62.9407 144.567 62.39C144.25 61.83 144.091 61.2 144.091 60.5C144.091 59.8093 144.245 59.1887 144.553 58.638C144.87 58.078 145.304 57.6393 145.855 57.322C146.415 56.9953 147.05 56.832 147.759 56.832ZM150.111 59.996C150.018 59.3427 149.766 58.8293 149.355 58.456C148.944 58.0827 148.412 57.896 147.759 57.896C147.302 57.896 146.886 57.994 146.513 58.19C146.14 58.386 145.846 58.6473 145.631 58.974C145.416 59.2913 145.304 59.632 145.295 59.996H150.111ZM153.448 58.918C153.448 59.1887 153.574 59.3847 153.826 59.506C154.088 59.6273 154.503 59.758 155.072 59.898C155.623 60.0287 156.071 60.1593 156.416 60.29C156.771 60.4207 157.07 60.626 157.312 60.906C157.564 61.186 157.69 61.564 157.69 62.04C157.69 62.684 157.424 63.202 156.892 63.594C156.36 63.9767 155.693 64.168 154.89 64.168C154.172 64.168 153.565 64.028 153.07 63.748C152.576 63.468 152.216 63.076 151.992 62.572L152.986 62.054C153.136 62.4273 153.374 62.7073 153.7 62.894C154.027 63.0713 154.424 63.16 154.89 63.16C155.329 63.16 155.707 63.062 156.024 62.866C156.351 62.67 156.514 62.3993 156.514 62.054C156.514 61.8393 156.435 61.662 156.276 61.522C156.127 61.382 155.936 61.2747 155.702 61.2C155.478 61.1253 155.156 61.032 154.736 60.92C154.204 60.7893 153.77 60.6633 153.434 60.542C153.108 60.4113 152.823 60.22 152.58 59.968C152.347 59.716 152.23 59.3753 152.23 58.946C152.23 58.5353 152.347 58.1713 152.58 57.854C152.814 57.5273 153.131 57.2753 153.532 57.098C153.934 56.9207 154.382 56.832 154.876 56.832C155.464 56.832 155.982 56.958 156.43 57.21C156.888 57.462 157.238 57.812 157.48 58.26L156.486 58.764C156.346 58.4653 156.141 58.2367 155.87 58.078C155.6 57.91 155.268 57.826 154.876 57.826C154.438 57.826 154.088 57.9287 153.826 58.134C153.574 58.33 153.448 58.5913 153.448 58.918Z" fill="#464D6A"/>
<path d="M80.68 35.94C79.88 35.52 78.96 35.3 77.96 35.3H77.88L80.58 31H77.56L73.32 37.76H73.34C72.9 38.52 72.68 39.36 72.68 40.28C72.68 41.24 72.9 42.08 73.36 42.84C73.8 43.6 74.44 44.2 75.24 44.62C76.04 45.06 76.96 45.26 77.96 45.26C78.96 45.26 79.88 45.06 80.68 44.62C81.48 44.2 82.1 43.6 82.56 42.84C83.02 42.08 83.26 41.24 83.26 40.28C83.26 39.34 83.02 38.48 82.56 37.72C82.1 36.96 81.48 36.38 80.68 35.94ZM79.82 42C79.32 42.46 78.7 42.68 77.96 42.68C77.24 42.68 76.62 42.46 76.12 42C75.6 41.56 75.36 40.98 75.36 40.28C75.36 39.6 75.6 39.04 76.12 38.56C76.62 38.1 77.24 37.86 77.96 37.86C78.68 37.86 79.3 38.1 79.8 38.56C80.3 39.04 80.56 39.6 80.56 40.28C80.56 40.96 80.3 41.54 79.82 42ZM86.1317 45.18L85.3517 46.96L86.1517 47.62L87.1517 46.26C87.4717 45.8 87.6917 45.4 87.8117 45.08C87.9317 44.76 87.9917 44.34 88.0117 43.82C88.0117 43.36 87.8717 43 87.6317 42.74C87.3717 42.48 87.0117 42.34 86.5717 42.34C86.1117 42.34 85.7517 42.48 85.5117 42.72C85.2717 42.98 85.1517 43.34 85.1517 43.78C85.1517 44.26 85.2117 44.58 85.3317 44.76C85.4517 44.94 85.7317 45.08 86.1317 45.18ZM99.0298 39.8V36.68H96.4298V39.8H92.4898L96.8498 31H93.9498L89.5698 39.8V42.28H96.4298V45H99.0298V42.28H100.53V39.8H99.0298ZM112.322 40.92C112.322 39.44 111.722 38.38 110.562 37.7C111.522 37.1 112.002 36.16 112.002 34.86C112.002 33.58 111.562 32.58 110.682 31.84C109.802 31.12 108.622 30.74 107.122 30.74C105.602 30.74 104.402 31.12 103.522 31.84C102.642 32.58 102.222 33.58 102.222 34.86C102.222 36.16 102.702 37.1 103.682 37.7C102.482 38.38 101.902 39.44 101.902 40.92C101.902 42.28 102.362 43.34 103.282 44.1C104.202 44.88 105.482 45.26 107.122 45.26C108.722 45.26 110.002 44.88 110.922 44.1C111.842 43.34 112.322 42.28 112.322 40.92ZM105.382 33.56C105.802 33.24 106.382 33.08 107.122 33.08C107.842 33.08 108.422 33.24 108.842 33.56C109.242 33.88 109.462 34.32 109.462 34.86C109.462 35.42 109.242 35.84 108.842 36.16C108.422 36.48 107.842 36.62 107.122 36.62C106.382 36.62 105.802 36.48 105.382 36.16C104.962 35.84 104.762 35.42 104.762 34.86C104.762 34.32 104.962 33.88 105.382 33.56ZM109.102 42.3C108.602 42.68 107.942 42.86 107.122 42.86C106.282 42.86 105.622 42.68 105.122 42.3C104.602 41.94 104.362 41.42 104.362 40.76C104.362 40.12 104.602 39.64 105.102 39.28C105.602 38.94 106.282 38.76 107.122 38.76C107.962 38.76 108.622 38.94 109.122 39.28C109.602 39.64 109.862 40.12 109.862 40.76C109.862 41.42 109.602 41.94 109.102 42.3ZM116.093 44.36C116.953 44.96 117.973 45.26 119.133 45.26C120.293 45.26 121.293 44.96 122.153 44.36C122.993 43.76 123.653 42.9 124.113 41.8C124.573 40.72 124.813 39.44 124.813 38C124.813 36.56 124.573 35.3 124.113 34.2C123.653 33.12 122.993 32.26 122.153 31.66C121.293 31.06 120.293 30.74 119.133 30.74C117.973 30.74 116.953 31.06 116.093 31.66C115.233 32.26 114.573 33.12 114.113 34.2C113.653 35.3 113.433 36.56 113.433 38C113.433 39.44 113.653 40.72 114.113 41.8C114.573 42.9 115.233 43.76 116.093 44.36ZM121.373 41.5C120.813 42.26 120.073 42.64 119.133 42.64C118.173 42.64 117.433 42.26 116.873 41.5C116.313 40.74 116.053 39.56 116.053 38C116.053 36.44 116.313 35.28 116.873 34.52C117.433 33.76 118.173 33.36 119.133 33.36C120.073 33.36 120.813 33.76 121.373 34.52C121.933 35.28 122.213 36.44 122.213 38C122.213 39.56 121.933 40.74 121.373 41.5Z" fill="#0C1230"/>
</svg>
