<svg width="65" height="64" viewBox="0 0 65 64" fill="none" xmlns="http://www.w3.org/2000/svg">
<circle cx="32.5" cy="32" r="32" fill="#896BFF" fill-opacity="0.6"/>
<circle cx="32.5" cy="32" r="31.5" stroke="url(#paint0_linear_35_27075)" stroke-opacity="0.3"/>
<mask id="mask0_35_27075" style="mask-type:alpha" maskUnits="userSpaceOnUse" x="0" y="0" width="65" height="64">
<circle cx="32.5" cy="32" r="32" fill="#896BFF"/>
<circle cx="32.5" cy="32" r="31.5" stroke="url(#paint1_linear_35_27075)" stroke-opacity="0.3"/>
</mask>
<g mask="url(#mask0_35_27075)">
<path d="M36.5928 46.9283L32.3395 54.2952C32.2159 54.5049 32.1471 54.7425 32.1397 54.9858C32.1323 55.2292 32.1864 55.4705 32.297 55.6874L33.3731 57.8524C33.477 58.0628 33.6299 58.2452 33.8189 58.3842C34.008 58.5233 34.2276 58.6148 34.4594 58.6513C34.6913 58.6877 34.9284 58.6679 35.151 58.5936C35.3736 58.5192 35.575 58.3925 35.7384 58.2241L42.685 51.0271" fill="white"/>
<path d="M22.9481 16.9651L8.0889 42.702C7.95584 42.9319 7.86995 43.185 7.83798 43.4413C7.80601 43.6975 7.82884 43.9499 7.90468 44.1785C7.98052 44.4072 8.10729 44.6058 8.27499 44.7588C8.4427 44.9117 8.64675 45.0148 8.87106 45.06L42.1111 51.5498C42.426 51.6132 42.7662 51.5594 43.0801 51.3966C43.394 51.2339 43.6646 50.971 43.8508 50.6478L47.7103 43.9629C47.8971 43.6401 47.9895 43.2743 47.9735 42.921C47.9575 42.5678 47.834 42.2463 47.6216 42.0053L25.3812 16.4635C25.23 16.2918 25.0387 16.1666 24.8224 16.0979C24.606 16.0291 24.3706 16.0187 24.1347 16.0673C23.8988 16.1159 23.6688 16.2224 23.4629 16.3782C23.2569 16.534 23.0807 16.7349 22.9481 16.9651Z" fill="white"/>
<path d="M32.1653 48.5341L40.0543 34.87C40.6372 33.8604 42.0153 33.6706 42.8494 34.4852L50.8519 42.3004C53.1524 44.5471 53.6371 48.0676 52.0293 50.8524C50.4316 53.6197 47.1698 54.9629 44.0867 54.1232L33.2515 51.1719C32.1121 50.8616 31.5748 49.5569 32.1653 48.5341Z" fill="#896BFF"/>
<ellipse cx="16.4" cy="30.3423" rx="3.58103" ry="16.5763" transform="rotate(30 16.4 30.3423)" fill="#896BFF"/>
<circle cx="39.9268" cy="19.8164" r="12" fill="#896BFF"/>
<path d="M33.9268 24.5342C33.9268 22.4097 35.649 20.6875 37.7735 20.6875H42.08C44.2045 20.6875 45.9268 22.4097 45.9268 24.5342V24.5342C45.9268 25.2424 45.3527 25.8165 44.6445 25.8165H35.209C34.5008 25.8165 33.9268 25.2424 33.9268 24.5342V24.5342Z" fill="white"/>
<path d="M39.9281 19.7107C41.8165 19.7107 43.3474 18.1798 43.3474 16.2914C43.3474 14.4029 41.8165 12.8721 39.9281 12.8721C38.0397 12.8721 36.5088 14.4029 36.5088 16.2914C36.5088 18.1798 38.0397 19.7107 39.9281 19.7107Z" fill="white"/>
</g>
<defs>
<linearGradient id="paint0_linear_35_27075" x1="32.5" y1="0" x2="32.5" y2="64" gradientUnits="userSpaceOnUse">
<stop stop-color="#663AE7" stop-opacity="0"/>
<stop offset="1" stop-color="#663AE7"/>
</linearGradient>
<linearGradient id="paint1_linear_35_27075" x1="32.5" y1="0" x2="32.5" y2="64" gradientUnits="userSpaceOnUse">
<stop stop-color="#663AE7"/>
<stop offset="1" stop-color="#663AE7" stop-opacity="0"/>
</linearGradient>
</defs>
</svg>
