<svg width="64" height="64" viewBox="0 0 64 64" fill="none" xmlns="http://www.w3.org/2000/svg">
<circle cx="32" cy="32" r="32" fill="#B0E3FF" fill-opacity="0.6"/>
<circle cx="32" cy="32" r="31.5" stroke="url(#paint0_linear_35_27061)" stroke-opacity="0.3"/>
<mask id="mask0_35_27061" style="mask-type:alpha" maskUnits="userSpaceOnUse" x="0" y="0" width="64" height="64">
<circle cx="32" cy="32" r="32" fill="#896BFF"/>
<circle cx="32" cy="32" r="31.5" stroke="url(#paint1_linear_35_27061)" stroke-opacity="0.3"/>
</mask>
<g mask="url(#mask0_35_27061)">
<rect x="9.64844" y="23.7422" width="45.1124" height="50.6068" rx="5" fill="url(#paint2_linear_35_27061)"/>
<rect x="50.082" y="42.3184" width="2.96235" height="35.6445" rx="1.48118" transform="rotate(90 50.082 42.3184)" fill="#CBD0EA"/>
<rect x="41.6562" y="48.9062" width="2.96235" height="18.8945" rx="1.48118" transform="rotate(90 41.6562 48.9062)" fill="#52B6FF"/>
<circle cx="32" cy="25.3164" r="12" fill="#52B6FF"/>
<path d="M31.4134 18.7116L26.7115 19.6496C26.3152 19.7287 26.0055 20.0384 25.9265 20.4346L24.9884 25.1365C24.9717 25.222 24.9762 25.3104 25.0017 25.3937C25.0272 25.477 25.0727 25.5528 25.1344 25.6144L32.0638 32.5438C32.1127 32.5938 32.171 32.6335 32.2354 32.6606C32.2998 32.6877 32.369 32.7017 32.4388 32.7017C32.5087 32.7017 32.5779 32.6877 32.6423 32.6606C32.7067 32.6335 32.765 32.5938 32.8138 32.5438L38.8207 26.537C38.8706 26.4882 38.9103 26.4298 38.9374 26.3654C38.9645 26.301 38.9785 26.2319 38.9785 26.162C38.9785 26.0921 38.9645 26.0229 38.9374 25.9585C38.9103 25.8941 38.8706 25.8358 38.8207 25.787L31.8913 18.8576C31.8297 18.7959 31.7539 18.7503 31.6706 18.7248C31.5872 18.6994 31.4989 18.6948 31.4134 18.7116Z" fill="white"/>
<path d="M28.845 23.9746C29.4799 23.9746 29.9946 23.4599 29.9946 22.8249C29.9946 22.19 29.4799 21.6753 28.845 21.6753C28.21 21.6753 27.6953 22.19 27.6953 22.8249C27.6953 23.4599 28.21 23.9746 28.845 23.9746Z" fill="#52B6FF"/>
</g>
<defs>
<linearGradient id="paint0_linear_35_27061" x1="32" y1="0" x2="32" y2="64" gradientUnits="userSpaceOnUse">
<stop stop-color="#52B6FF" stop-opacity="0"/>
<stop offset="1" stop-color="#52B6FF"/>
</linearGradient>
<linearGradient id="paint1_linear_35_27061" x1="32" y1="0" x2="32" y2="64" gradientUnits="userSpaceOnUse">
<stop stop-color="#663AE7"/>
<stop offset="1" stop-color="#663AE7" stop-opacity="0"/>
</linearGradient>
<linearGradient id="paint2_linear_35_27061" x1="32.2046" y1="23.7422" x2="32.2046" y2="74.349" gradientUnits="userSpaceOnUse">
<stop stop-color="white"/>
<stop offset="1" stop-color="#F9FAFF"/>
</linearGradient>
</defs>
</svg>
