<svg width="175" height="181" viewBox="0 0 175 181" fill="none" xmlns="http://www.w3.org/2000/svg">
<rect width="175" height="180.354" fill="white"/>
<circle cx="87.5" cy="44" r="16" fill="#896BFF"/>
<path d="M96.8205 43.75C96.797 43.6875 96.133 42.2188 94.6642 40.7422C92.7033 38.7891 90.2267 37.75 87.5002 37.75C84.7736 37.75 82.297 38.7891 80.3361 40.7422C78.8674 42.2188 78.2033 43.6875 78.1799 43.75C78.145 43.8287 78.127 43.9139 78.127 44C78.127 44.0861 78.145 44.1713 78.1799 44.25C78.2033 44.3125 78.8674 45.7812 80.3361 47.2578C82.297 49.2109 84.7736 50.25 87.5002 50.25C90.2267 50.25 92.7033 49.2109 94.6642 47.2578C96.133 45.7812 96.797 44.3125 96.8205 44.25C96.8554 44.1713 96.8734 44.0861 96.8734 44C96.8734 43.9139 96.8554 43.8287 96.8205 43.75V43.75ZM87.5002 41.1875C88.0564 41.1875 88.6002 41.3525 89.0627 41.6615C89.5252 41.9705 89.8857 42.4098 90.0986 42.9237C90.3114 43.4376 90.3671 44.0031 90.2586 44.5487C90.1501 45.0943 89.8822 45.5954 89.4889 45.9887C89.0956 46.3821 88.5944 46.6499 88.0489 46.7585C87.5033 46.867 86.9378 46.8113 86.4239 46.5984C85.91 46.3855 85.4707 46.0251 85.1617 45.5625C84.8526 45.1 84.6877 44.5563 84.6877 44C84.6877 43.2541 84.984 42.5387 85.5114 42.0113C86.0389 41.4838 86.7542 41.1875 87.5002 41.1875V41.1875Z" fill="white"/>
<path d="M68.411 92.024V94.976H55.907V94.256C56.019 92.672 56.483 91.136 57.299 89.648C58.115 88.16 59.363 87.08 61.043 86.408C61.395 86.248 61.659 86.136 61.835 86.072C62.635 85.736 63.251 85.456 63.683 85.232C64.131 84.992 64.499 84.712 64.787 84.392C65.091 84.056 65.243 83.664 65.243 83.216C65.243 82.688 65.091 82.24 64.787 81.872C64.499 81.488 64.131 81.2 63.683 81.008C63.235 80.816 62.787 80.72 62.339 80.72C61.363 80.72 60.523 80.92 59.819 81.32C59.131 81.704 58.723 82.296 58.595 83.096L55.643 82.784C55.787 81.76 56.179 80.88 56.819 80.144C57.459 79.408 58.259 78.848 59.219 78.464C60.195 78.08 61.235 77.888 62.339 77.888C63.331 77.888 64.283 78.096 65.195 78.512C66.107 78.928 66.843 79.528 67.403 80.312C67.963 81.096 68.243 82.016 68.243 83.072C68.243 84.128 67.987 85.008 67.475 85.712C66.979 86.416 66.323 87 65.507 87.464C64.691 87.912 63.595 88.4 62.219 88.928C61.003 89.408 60.131 90.44 59.603 92.024H68.411ZM80.5691 86.072C81.2251 86.536 81.7371 87.112 82.1051 87.8C82.4731 88.472 82.6571 89.208 82.6571 90.008C82.6571 91 82.3771 91.896 81.8171 92.696C81.2731 93.496 80.5211 94.128 79.5611 94.592C78.6171 95.04 77.5611 95.264 76.3931 95.264C75.3051 95.264 74.2971 95.056 73.3691 94.64C72.4571 94.224 71.7211 93.656 71.1611 92.936C70.6011 92.2 70.2971 91.376 70.2491 90.464L73.4891 90.224C73.6331 90.832 73.9771 91.336 74.5211 91.736C75.0651 92.136 75.6891 92.336 76.3931 92.336C77.3051 92.336 78.0571 92.104 78.6491 91.64C79.2411 91.176 79.5371 90.584 79.5371 89.864C79.5371 89.144 79.2411 88.552 78.6491 88.088C78.0571 87.624 77.3051 87.392 76.3931 87.392H75.5051L75.5291 84.848H76.3931C77.1931 84.848 77.8491 84.656 78.3611 84.272C78.8891 83.888 79.1531 83.392 79.1531 82.784C79.1531 82.176 78.8891 81.68 78.3611 81.296C77.8331 80.896 77.1611 80.696 76.3451 80.696C75.7691 80.696 75.2331 80.832 74.7371 81.104C74.2411 81.376 73.8891 81.728 73.6811 82.16L70.5851 81.968C70.6971 81.2 71.0171 80.504 71.5451 79.88C72.0891 79.256 72.7771 78.768 73.6091 78.416C74.4411 78.064 75.3531 77.888 76.3451 77.888C77.4651 77.888 78.4651 78.104 79.3451 78.536C80.2411 78.952 80.9371 79.536 81.4331 80.288C81.9451 81.024 82.2011 81.856 82.2011 82.784C82.2011 83.44 82.0571 84.048 81.7691 84.608C81.4971 85.168 81.0971 85.656 80.5691 86.072ZM85.1671 93.656C85.1671 93.144 85.3031 92.752 85.5751 92.48C85.8631 92.192 86.2631 92.048 86.7751 92.048C87.2871 92.048 87.6791 92.192 87.9511 92.48C88.2231 92.752 88.3591 93.144 88.3591 93.656C88.3591 94.168 88.2231 94.568 87.9511 94.856C87.6791 95.144 87.2871 95.288 86.7751 95.288C86.2631 95.288 85.8631 95.144 85.5751 94.856C85.3031 94.568 85.1671 94.168 85.1671 93.656ZM101.196 86.24C102.604 87.04 103.308 88.328 103.308 90.104C103.308 91.72 102.748 92.992 101.628 93.92C100.524 94.848 99.0038 95.312 97.0678 95.312C95.1158 95.312 93.5798 94.848 92.4598 93.92C91.3558 92.992 90.8038 91.72 90.8038 90.104C90.8038 88.328 91.5158 87.04 92.9398 86.24C91.7718 85.52 91.1878 84.384 91.1878 82.832C91.1878 81.296 91.7078 80.088 92.7478 79.208C93.8038 78.328 95.2438 77.888 97.0678 77.888C98.8758 77.888 100.3 78.328 101.34 79.208C102.396 80.088 102.924 81.296 102.924 82.832C102.924 84.384 102.348 85.52 101.196 86.24ZM97.0678 80.696C96.1878 80.696 95.4918 80.888 94.9798 81.272C94.4838 81.656 94.2358 82.176 94.2358 82.832C94.2358 83.488 94.4838 84.008 94.9798 84.392C95.4918 84.76 96.1878 84.944 97.0678 84.944C97.9478 84.944 98.6358 84.76 99.1318 84.392C99.6278 84.008 99.8758 83.488 99.8758 82.832C99.8758 82.176 99.6278 81.656 99.1318 81.272C98.6358 80.888 97.9478 80.696 97.0678 80.696ZM97.0678 92.432C98.0598 92.432 98.8518 92.208 99.4438 91.76C100.052 91.312 100.356 90.696 100.356 89.912C100.356 89.144 100.06 88.552 99.4678 88.136C98.8758 87.72 98.0758 87.512 97.0678 87.512C96.0598 87.512 95.2518 87.72 94.6438 88.136C94.0518 88.552 93.7558 89.144 93.7558 89.912C93.7558 90.696 94.0598 91.312 94.6678 91.76C95.2758 92.208 96.0758 92.432 97.0678 92.432ZM120.026 94.976L116.114 95L110.762 88.304L109.106 90.224V95H105.962V78.2H109.106V85.4L115.418 78.2H119.45L112.85 85.88L120.026 94.976Z" fill="#0C1230"/>
<path d="M52.0131 106.228V106.2H53.3011V116H52.0131V108.51L48.8911 113.774H48.5551L45.4191 108.482V116.014H44.1451V106.214H45.4191V106.228L45.4891 106.2L48.7231 111.674L51.9571 106.2L52.0131 106.228ZM58.3273 116.168C57.6646 116.168 57.0533 116.005 56.4933 115.678C55.9333 115.351 55.4853 114.908 55.1493 114.348C54.8226 113.779 54.6593 113.163 54.6593 112.5C54.6593 111.837 54.8226 111.226 55.1493 110.666C55.4853 110.106 55.9333 109.663 56.4933 109.336C57.0533 109.009 57.6646 108.846 58.3273 108.846C58.9899 108.846 59.6013 109.009 60.1613 109.336C60.7213 109.663 61.1646 110.106 61.4913 110.666C61.8273 111.226 61.9953 111.837 61.9953 112.5C61.9953 113.163 61.8273 113.779 61.4913 114.348C61.1646 114.908 60.7213 115.351 60.1613 115.678C59.6013 116.005 58.9899 116.168 58.3273 116.168ZM58.3273 114.964C58.7753 114.964 59.1859 114.857 59.5593 114.642C59.9326 114.418 60.2266 114.119 60.4413 113.746C60.6653 113.363 60.7773 112.948 60.7773 112.5C60.7773 112.052 60.6653 111.641 60.4413 111.268C60.2266 110.895 59.9326 110.601 59.5593 110.386C59.1859 110.162 58.7753 110.05 58.3273 110.05C57.8793 110.05 57.4639 110.162 57.0813 110.386C56.7079 110.601 56.4093 110.895 56.1853 111.268C55.9706 111.641 55.8633 112.052 55.8633 112.5C55.8633 112.948 55.9706 113.363 56.1853 113.746C56.4093 114.119 56.7079 114.418 57.0813 114.642C57.4639 114.857 57.8793 114.964 58.3273 114.964ZM66.5317 108.832C66.9424 108.832 67.3624 108.921 67.7917 109.098C68.2211 109.266 68.5897 109.574 68.8977 110.022C69.2057 110.461 69.3597 111.058 69.3597 111.814V116H68.1557V111.814C68.1557 111.133 67.9691 110.647 67.5957 110.358C67.2224 110.059 66.7837 109.91 66.2797 109.91C65.7944 109.91 65.3697 110.083 65.0057 110.428C64.6417 110.764 64.4597 111.319 64.4597 112.094V116H63.2557V109H64.4597V109.826C64.7117 109.527 65.0151 109.289 65.3697 109.112C65.7244 108.925 66.1117 108.832 66.5317 108.832ZM72.7786 113.816C72.7786 114.245 72.8579 114.544 73.0166 114.712C73.1846 114.871 73.4506 114.95 73.8146 114.95C73.9266 114.95 74.1599 114.931 74.5146 114.894V116C74.1132 116.047 73.7772 116.07 73.5066 116.07C72.8439 116.07 72.3539 115.911 72.0366 115.594C71.7286 115.277 71.5746 114.707 71.5746 113.886V110.106H70.0206V109H71.5746V107.096L72.7786 106.662V109H74.4866V110.106H72.7786V113.816ZM81.8952 116H80.6912V111.842C80.6912 111.161 80.4999 110.675 80.1172 110.386C79.7439 110.087 79.3099 109.938 78.8152 109.938C78.4325 109.938 78.0732 110.05 77.7372 110.274C77.4105 110.498 77.1865 110.857 77.0652 111.352V116H75.8612V106.2H77.0652V109.756C77.3079 109.485 77.6019 109.271 77.9472 109.112C78.2925 108.944 78.6612 108.86 79.0532 108.86C79.4639 108.86 79.8839 108.949 80.3132 109.126C80.7425 109.294 81.1112 109.597 81.4192 110.036C81.7365 110.475 81.8952 111.067 81.8952 111.814V116ZM84.7761 114.516C84.7761 114.675 84.8088 114.787 84.8741 114.852C84.9488 114.908 85.0608 114.936 85.2101 114.936C85.2941 114.936 85.3735 114.931 85.4481 114.922C85.5228 114.913 85.5928 114.903 85.6581 114.894V116C85.3595 116.047 85.1075 116.07 84.9021 116.07C84.4821 116.07 84.1555 115.963 83.9221 115.748C83.6888 115.524 83.5721 115.137 83.5721 114.586V106.2H84.7761V114.516ZM91.6427 109H92.9167L90.2567 116.252C89.9207 117.111 89.4634 117.764 88.8847 118.212C88.3154 118.669 87.6574 118.865 86.9107 118.8V117.638L87.0927 117.652C87.9607 117.652 88.6327 117.055 89.1087 115.86L85.9307 109H87.2467L89.6967 114.264L91.6427 109ZM100.272 114.614L102.484 109H103.772L101.028 116H99.5305L96.7725 109H98.0605L100.272 114.614ZM105.475 107.404C105.241 107.404 105.055 107.339 104.915 107.208C104.775 107.077 104.705 106.895 104.705 106.662C104.705 106.438 104.775 106.261 104.915 106.13C105.055 105.99 105.241 105.92 105.475 105.92C105.708 105.92 105.895 105.99 106.035 106.13C106.175 106.261 106.245 106.438 106.245 106.662C106.245 106.895 106.175 107.077 106.035 107.208C105.904 107.339 105.717 107.404 105.475 107.404ZM104.873 116V109H106.077V116H104.873ZM110.923 108.832C111.604 108.832 112.211 109 112.743 109.336C113.275 109.663 113.686 110.111 113.975 110.68C114.274 111.24 114.423 111.851 114.423 112.514C114.423 112.589 114.418 112.673 114.409 112.766C114.4 112.85 114.39 112.92 114.381 112.976H108.487C108.58 113.601 108.851 114.115 109.299 114.516C109.756 114.908 110.335 115.104 111.035 115.104C111.464 115.104 111.87 115.006 112.253 114.81C112.645 114.614 112.934 114.371 113.121 114.082L114.073 114.642C113.765 115.127 113.345 115.505 112.813 115.776C112.29 116.037 111.693 116.168 111.021 116.168C110.284 116.168 109.63 116.009 109.061 115.692C108.492 115.375 108.048 114.941 107.731 114.39C107.414 113.83 107.255 113.2 107.255 112.5C107.255 111.809 107.409 111.189 107.717 110.638C108.034 110.078 108.468 109.639 109.019 109.322C109.579 108.995 110.214 108.832 110.923 108.832ZM113.275 111.996C113.182 111.343 112.93 110.829 112.519 110.456C112.108 110.083 111.576 109.896 110.923 109.896C110.466 109.896 110.05 109.994 109.677 110.19C109.304 110.386 109.01 110.647 108.795 110.974C108.58 111.291 108.468 111.632 108.459 111.996H113.275ZM122.021 114.152L123.631 109H124.905L122.637 116H121.405L119.781 110.946L118.171 116H116.953L114.769 109H116.029L117.569 114.152L119.123 109H120.425L122.021 114.152ZM127.181 110.918C127.181 111.189 127.307 111.385 127.559 111.506C127.82 111.627 128.235 111.758 128.805 111.898C129.355 112.029 129.803 112.159 130.149 112.29C130.503 112.421 130.802 112.626 131.045 112.906C131.297 113.186 131.423 113.564 131.423 114.04C131.423 114.684 131.157 115.202 130.625 115.594C130.093 115.977 129.425 116.168 128.623 116.168C127.904 116.168 127.297 116.028 126.803 115.748C126.308 115.468 125.949 115.076 125.725 114.572L126.719 114.054C126.868 114.427 127.106 114.707 127.433 114.894C127.759 115.071 128.156 115.16 128.623 115.16C129.061 115.16 129.439 115.062 129.757 114.866C130.083 114.67 130.247 114.399 130.247 114.054C130.247 113.839 130.167 113.662 130.009 113.522C129.859 113.382 129.668 113.275 129.435 113.2C129.211 113.125 128.889 113.032 128.469 112.92C127.937 112.789 127.503 112.663 127.167 112.542C126.84 112.411 126.555 112.22 126.313 111.968C126.079 111.716 125.963 111.375 125.963 110.946C125.963 110.535 126.079 110.171 126.313 109.854C126.546 109.527 126.863 109.275 127.265 109.098C127.666 108.921 128.114 108.832 128.609 108.832C129.197 108.832 129.715 108.958 130.163 109.21C130.62 109.462 130.97 109.812 131.213 110.26L130.219 110.764C130.079 110.465 129.873 110.237 129.603 110.078C129.332 109.91 129.001 109.826 128.609 109.826C128.17 109.826 127.82 109.929 127.559 110.134C127.307 110.33 127.181 110.591 127.181 110.918Z" fill="#464D6A"/>
<rect x="51.7617" y="128" width="71.4802" height="24.3543" rx="12.1772" fill="#F4F7FF"/>
<path d="M67.463 139.305C67.8462 139.549 68.1467 139.862 68.3644 140.245C68.5821 140.628 68.691 141.046 68.691 141.499C68.691 142.031 68.5429 142.514 68.2468 142.949C67.9594 143.376 67.5632 143.711 67.0581 143.955C66.553 144.199 65.9913 144.321 65.373 144.321C64.8156 144.321 64.2975 144.216 63.8185 144.007C63.3395 143.79 62.9476 143.498 62.6428 143.132C62.3467 142.758 62.1769 142.335 62.1334 141.865L63.6356 141.748C63.7314 142.096 63.9404 142.383 64.2626 142.61C64.5935 142.836 64.9637 142.949 65.373 142.949C65.9129 142.949 66.3614 142.81 66.7185 142.531C67.0755 142.244 67.254 141.883 67.254 141.447C67.254 141.003 67.0755 140.637 66.7185 140.35C66.3614 140.062 65.9129 139.919 65.373 139.919H64.9027L64.9158 138.73H65.373C65.8519 138.73 66.2438 138.612 66.5486 138.377C66.8621 138.133 67.0189 137.824 67.0189 137.45C67.0189 137.084 66.8621 136.779 66.5486 136.535C66.2351 136.292 65.8389 136.17 65.3599 136.17C65.0203 136.17 64.7024 136.257 64.4063 136.431C64.1102 136.596 63.9012 136.805 63.7793 137.058L62.3424 136.967C62.412 136.566 62.5862 136.209 62.8649 135.895C63.1523 135.573 63.5137 135.325 63.9491 135.151C64.3845 134.968 64.8548 134.876 65.3599 134.876C65.9521 134.876 66.479 134.99 66.9405 135.216C67.4108 135.434 67.7765 135.739 68.0378 136.13C68.2991 136.522 68.4297 136.962 68.4297 137.45C68.4297 137.824 68.3426 138.173 68.1684 138.495C68.003 138.808 67.7678 139.078 67.463 139.305ZM73.168 137.894C73.8211 137.894 74.4046 138.038 74.9184 138.325C75.4409 138.604 75.8502 138.987 76.1463 139.475C76.4424 139.962 76.5905 140.511 76.5905 141.121C76.5905 141.73 76.4424 142.279 76.1463 142.766C75.8502 143.254 75.4409 143.637 74.9184 143.916C74.4046 144.195 73.8211 144.334 73.168 144.334C72.5235 144.334 71.9401 144.195 71.4175 143.916C70.895 143.637 70.4857 143.254 70.1896 142.766C69.9022 142.279 69.7585 141.73 69.7585 141.121C69.7585 140.52 69.8979 139.98 70.1766 139.501C70.2462 139.379 70.2898 139.309 70.3072 139.292L72.9851 135.033H74.6571L72.8414 137.907C72.9111 137.898 73.0199 137.894 73.168 137.894ZM73.168 142.897C73.5337 142.897 73.8603 142.819 74.1477 142.662C74.4438 142.505 74.6746 142.292 74.84 142.022C75.0142 141.752 75.1013 141.451 75.1013 141.121C75.1013 140.79 75.0142 140.485 74.84 140.206C74.6746 139.927 74.4438 139.71 74.1477 139.553C73.8516 139.396 73.525 139.318 73.168 139.318C72.8109 139.318 72.4843 139.396 72.1882 139.553C71.9009 139.71 71.6701 139.927 71.4959 140.206C71.3304 140.476 71.2477 140.781 71.2477 141.121C71.2477 141.634 71.4306 142.061 71.7964 142.401C72.1708 142.732 72.628 142.897 73.168 142.897ZM77.9454 143.55C77.9454 143.306 78.0107 143.119 78.1414 142.989C78.272 142.849 78.4592 142.78 78.7031 142.78C78.9469 142.78 79.1342 142.849 79.2648 142.989C79.3954 143.119 79.4607 143.306 79.4607 143.55C79.4607 143.803 79.3954 143.999 79.2648 144.138C79.1342 144.269 78.9469 144.334 78.7031 144.334C78.4592 144.334 78.272 144.269 78.1414 144.138C78.0107 143.999 77.9454 143.803 77.9454 143.55ZM86.2805 139.383C87.1078 139.819 87.5215 140.541 87.5215 141.552C87.5215 142.414 87.2254 143.097 86.6332 143.602C86.0497 144.099 85.2442 144.347 84.2166 144.347C83.1889 144.347 82.379 144.099 81.7868 143.602C81.1947 143.097 80.8986 142.414 80.8986 141.552C80.8986 140.541 81.3166 139.819 82.1526 139.383C81.4733 138.991 81.1337 138.356 81.1337 137.476C81.1337 136.666 81.408 136.03 81.9567 135.569C82.5053 135.099 83.2586 134.863 84.2166 134.863C85.1745 134.863 85.9278 135.099 86.4764 135.569C87.0251 136.03 87.2994 136.666 87.2994 137.476C87.2994 138.356 86.9598 138.991 86.2805 139.383ZM84.2166 136.183C83.694 136.183 83.2847 136.3 82.9886 136.535C82.6925 136.762 82.5445 137.075 82.5445 137.476C82.5445 137.877 82.6925 138.194 82.9886 138.43C83.2847 138.656 83.694 138.769 84.2166 138.769C84.7304 138.769 85.1353 138.656 85.4314 138.43C85.7362 138.194 85.8886 137.877 85.8886 137.476C85.8886 137.075 85.7362 136.762 85.4314 136.535C85.1353 136.3 84.7304 136.183 84.2166 136.183ZM84.2166 142.989C84.8087 142.989 85.279 142.854 85.6273 142.584C85.9757 142.314 86.1499 141.939 86.1499 141.46C86.1499 140.99 85.9757 140.628 85.6273 140.376C85.279 140.115 84.8087 139.984 84.2166 139.984C83.6244 139.984 83.1497 140.115 82.7927 140.376C82.4443 140.628 82.2702 140.99 82.2702 141.46C82.2702 141.939 82.4443 142.314 82.7927 142.584C83.1497 142.854 83.6244 142.989 84.2166 142.989ZM90.6269 139.657C90.2002 139.657 89.8213 139.566 89.4904 139.383C89.1682 139.192 88.9156 138.93 88.7328 138.599C88.5499 138.268 88.4584 137.903 88.4584 137.502C88.4584 137.093 88.5499 136.723 88.7328 136.392C88.9156 136.061 89.1682 135.804 89.4904 135.621C89.8213 135.429 90.2002 135.334 90.6269 135.334C91.0536 135.334 91.4281 135.429 91.7503 135.621C92.0812 135.804 92.3381 136.061 92.521 136.392C92.7039 136.723 92.7953 137.093 92.7953 137.502C92.7953 137.903 92.7039 138.268 92.521 138.599C92.3381 138.93 92.0812 139.192 91.7503 139.383C91.4281 139.566 91.0536 139.657 90.6269 139.657ZM90.653 144.177H89.7778L95.3426 135.464H96.2309L90.653 144.177ZM90.6269 138.782C90.9665 138.782 91.2452 138.665 91.4629 138.43C91.6806 138.194 91.7895 137.885 91.7895 137.502C91.7895 137.11 91.6806 136.797 91.4629 136.562C91.2452 136.318 90.9665 136.196 90.6269 136.196C90.296 136.196 90.0216 136.318 89.8039 136.562C89.5862 136.805 89.4773 137.119 89.4773 137.502C89.4773 137.877 89.5862 138.186 89.8039 138.43C90.0216 138.665 90.296 138.782 90.6269 138.782ZM95.3165 144.334C94.8897 144.334 94.5109 144.243 94.18 144.06C93.8578 143.868 93.6052 143.607 93.4223 143.276C93.2395 142.945 93.148 142.579 93.148 142.179C93.148 141.769 93.2395 141.399 93.4223 141.068C93.6052 140.737 93.8578 140.48 94.18 140.298C94.5109 140.106 94.8897 140.01 95.3165 140.01C95.7432 140.01 96.1177 140.106 96.4399 140.298C96.7708 140.48 97.0277 140.737 97.2106 141.068C97.3935 141.399 97.4849 141.769 97.4849 142.179C97.4849 142.579 97.3935 142.945 97.2106 143.276C97.0277 143.607 96.7708 143.868 96.4399 144.06C96.1177 144.243 95.7432 144.334 95.3165 144.334ZM95.3165 143.459C95.6561 143.459 95.9348 143.341 96.1525 143.106C96.3702 142.871 96.4791 142.562 96.4791 142.179C96.4791 141.787 96.3702 141.473 96.1525 141.238C95.9348 140.994 95.6561 140.872 95.3165 140.872C94.9768 140.872 94.6982 140.994 94.4804 141.238C94.2627 141.473 94.1539 141.787 94.1539 142.179C94.1539 142.562 94.2584 142.871 94.4674 143.106C94.6851 143.341 94.9681 143.459 95.3165 143.459Z" fill="#0C1230"/>
<path d="M104.373 143.806L111.63 136.549" stroke="#0C1230" stroke-width="1.2" stroke-linecap="round" stroke-linejoin="round"/>
<path d="M111.63 143.391V136.549H104.788" stroke="#0C1230" stroke-width="1.2" stroke-linecap="round" stroke-linejoin="round"/>
</svg>
