<svg width="64" height="65" viewBox="0 0 64 65" fill="none" xmlns="http://www.w3.org/2000/svg">
<circle cx="32" cy="32.4609" r="32" fill="#B0E3FF" fill-opacity="0.6"/>
<circle cx="32" cy="32.4609" r="31.5" stroke="url(#paint0_linear_52_26068)" stroke-opacity="0.3"/>
<rect x="11.9922" y="20.7285" width="40.0191" height="27.4238" rx="4.19444" fill="url(#paint1_linear_52_26068)"/>
<rect x="20.5" y="50.4785" width="23.0039" height="4" rx="2" fill="#52B6FF"/>
<circle cx="32" cy="22.4414" r="12" fill="#52B6FF"/>
<path d="M37.5 18.3333H34.9563C34.8359 17.6365 34.4733 17.0045 33.9324 16.549C33.3915 16.0935 32.7071 15.8438 32 15.8438C31.2929 15.8438 30.6085 16.0935 30.0676 16.549C29.5267 17.0045 29.1641 17.6365 29.0437 18.3333H26.5C26.2348 18.3333 25.9804 18.4386 25.7929 18.6262C25.6054 18.8137 25.5 19.0681 25.5 19.3333V27.3333C25.5 27.5985 25.6054 27.8528 25.7929 28.0404C25.9804 28.2279 26.2348 28.3333 26.5 28.3333H37.5C37.7652 28.3333 38.0196 28.2279 38.2071 28.0404C38.3946 27.8528 38.5 27.5985 38.5 27.3333V19.3333C38.5 19.0681 38.3946 18.8137 38.2071 18.6262C38.0196 18.4386 37.7652 18.3333 37.5 18.3333V18.3333ZM32 16.8333C32.4433 16.8341 32.8738 16.9818 33.2243 17.2531C33.5749 17.5245 33.8256 17.9043 33.9375 18.3333H30.0625C30.1744 17.9043 30.4251 17.5245 30.7757 17.2531C31.1262 16.9818 31.5567 16.8341 32 16.8333V16.8333Z" fill="white"/>
<defs>
<linearGradient id="paint0_linear_52_26068" x1="32" y1="0.460937" x2="32" y2="64.4609" gradientUnits="userSpaceOnUse">
<stop stop-color="#52B6FF" stop-opacity="0"/>
<stop offset="1" stop-color="#A2D8FF"/>
</linearGradient>
<linearGradient id="paint1_linear_52_26068" x1="32.0017" y1="20.7285" x2="32.0017" y2="48.1523" gradientUnits="userSpaceOnUse">
<stop stop-color="white"/>
<stop offset="1" stop-color="#F9FAFF"/>
</linearGradient>
</defs>
</svg>
