<svg width="64" height="64" viewBox="0 0 64 64" fill="none" xmlns="http://www.w3.org/2000/svg">
<circle cx="32" cy="32" r="32" fill="#B0E3FF" fill-opacity="0.6"/>
<circle cx="32" cy="32" r="31.5" stroke="url(#paint0_linear_47_25871)" stroke-opacity="0.3"/>
<mask id="mask0_47_25871" style="mask-type:alpha" maskUnits="userSpaceOnUse" x="0" y="0" width="64" height="64">
<circle cx="32" cy="32" r="32" fill="#B0E3FF"/>
<circle cx="32" cy="32" r="31.5" stroke="url(#paint1_linear_47_25871)" stroke-opacity="0.3"/>
</mask>
<g mask="url(#mask0_47_25871)">
<path d="M21.5076 50.7428C19.4806 49.1667 17.8389 47.15 16.7069 44.8454C15.5749 42.5408 14.9822 40.0087 14.9738 37.4411C14.9312 28.2044 22.3589 20.5213 31.5956 20.3085C35.1704 20.2238 38.6812 21.2667 41.63 23.2893C44.5787 25.3119 46.8158 28.2116 48.024 31.5771C49.2322 34.9426 49.3501 38.6031 48.3611 42.0394C47.372 45.4756 45.3262 48.5133 42.5137 50.7216C41.8924 51.2018 41.3892 51.8177 41.0424 52.5223C40.6957 53.2268 40.5146 54.0013 40.5131 54.7866V57.7661C40.5131 58.2177 40.3337 58.6508 40.0144 58.9701C39.6951 59.2894 39.2621 59.4688 38.8105 59.4688H25.1895C24.738 59.4688 24.3049 59.2894 23.9856 58.9701C23.6663 58.6508 23.4869 58.2177 23.4869 57.7661V54.7866C23.4816 54.0072 23.3009 53.2391 22.9583 52.5391C22.6156 51.839 22.1198 51.2251 21.5076 50.7428Z" fill="white"/>
<path d="M24.2441 60.6475C24.2441 60.2252 24.5865 59.8828 25.0088 59.8828H38.9949C39.4172 59.8828 39.7595 60.2252 39.7595 60.6475V60.6475C39.7595 63.6036 37.3631 66 34.407 66H29.5967C26.6406 66 24.2441 63.6036 24.2441 60.6475V60.6475Z" fill="#A7DFFF"/>
<rect x="22.3613" y="53.8574" width="19.2813" height="3.0127" rx="1.50635" fill="#A7DFFF"/>
<rect x="22.3613" y="56.8701" width="19.2813" height="3.0127" rx="1.50635" fill="#52B6FF"/>
</g>
<circle cx="32" cy="17.2305" r="12" fill="#52B6FF"/>
<path d="M38.719 15.7493C38.7034 15.6794 38.6731 15.6136 38.63 15.5565C38.5868 15.4993 38.5319 15.4521 38.469 15.418L36.9815 14.593C36.9023 14.4305 36.8148 14.2743 36.719 14.1243L36.744 12.4243C36.7445 12.353 36.7304 12.2823 36.7024 12.2167C36.6745 12.1511 36.6333 12.092 36.5815 12.043C35.8408 11.3715 34.9649 10.8664 34.0127 10.5618C33.9443 10.5404 33.8722 10.5339 33.8011 10.5425C33.73 10.5511 33.6615 10.5747 33.6002 10.6118L32.144 11.4868C31.9627 11.4805 31.7877 11.4805 31.6065 11.4868L30.1502 10.6118C30.0889 10.5747 30.0204 10.5511 29.9493 10.5425C29.8782 10.5339 29.8061 10.5404 29.7377 10.5618C28.7843 10.8666 27.908 11.3741 27.169 12.0493C27.1167 12.0966 27.0751 12.1545 27.0471 12.2192C27.0191 12.2838 27.0052 12.3538 27.0065 12.4243L27.0377 14.1243C26.9377 14.2743 26.8502 14.4305 26.7627 14.593L25.2815 15.418C25.2177 15.4511 25.1622 15.498 25.1189 15.5553C25.0757 15.6126 25.0458 15.6789 25.0315 15.7493C24.8189 16.7253 24.8189 17.7357 25.0315 18.7118C25.047 18.7817 25.0773 18.8474 25.1205 18.9046C25.1636 18.9617 25.2185 19.0089 25.2815 19.043L26.769 19.868C26.8487 20.0297 26.9385 20.1863 27.0377 20.3368L27.0065 22.0368C27.0059 22.1081 27.02 22.1787 27.048 22.2443C27.0759 22.3099 27.1171 22.3691 27.169 22.418C27.9106 23.0881 28.7862 23.593 29.7377 23.8993C29.8061 23.9206 29.8782 23.9272 29.9493 23.9185C30.0204 23.9099 30.0889 23.8863 30.1502 23.8493L31.6065 22.9743H32.144L33.6065 23.8493C33.6825 23.8993 33.7717 23.9254 33.8627 23.9243C33.9135 23.9221 33.9639 23.9137 34.0127 23.8993C34.9662 23.5944 35.8424 23.087 36.5815 22.4118C36.6337 22.3645 36.6753 22.3066 36.7033 22.2419C36.7314 22.1772 36.7452 22.1073 36.744 22.0368L36.719 20.3368C36.8127 20.1868 36.9002 20.0305 36.9877 19.868L38.4752 19.043C38.5373 19.0086 38.5912 18.9611 38.6332 18.904C38.6753 18.8468 38.7045 18.7813 38.719 18.7118C38.9315 17.7357 38.9315 16.7253 38.719 15.7493V15.7493ZM34.6252 17.2305C34.6252 17.7744 34.4639 18.3061 34.1618 18.7583C33.8596 19.2106 33.4301 19.563 32.9276 19.7712C32.4251 19.9793 31.8722 20.0338 31.3387 19.9277C30.8053 19.8216 30.3153 19.5597 29.9307 19.1751C29.5461 18.7905 29.2842 18.3005 29.1781 17.767C29.0719 17.2336 29.1264 16.6806 29.3345 16.1781C29.5427 15.6756 29.8952 15.2462 30.3474 14.944C30.7996 14.6418 31.3313 14.4805 31.8752 14.4805C32.6046 14.4805 33.304 14.7702 33.8198 15.286C34.3355 15.8017 34.6252 16.5012 34.6252 17.2305Z" fill="white"/>
<defs>
<linearGradient id="paint0_linear_47_25871" x1="32" y1="0" x2="32" y2="64" gradientUnits="userSpaceOnUse">
<stop stop-color="#52B6FF" stop-opacity="0"/>
<stop offset="1" stop-color="#A2D8FF"/>
</linearGradient>
<linearGradient id="paint1_linear_47_25871" x1="32" y1="0" x2="32" y2="64" gradientUnits="userSpaceOnUse">
<stop stop-color="#52B6FF"/>
<stop offset="1" stop-color="#52B6FF" stop-opacity="0"/>
</linearGradient>
</defs>
</svg>
