<svg width="25" height="25" viewBox="0 0 25 25" fill="none" xmlns="http://www.w3.org/2000/svg">
<circle cx="12.1797" cy="12.0469" r="12" fill="#896BFF"/>
<path d="M12.4297 4.79688C10.9715 4.79853 9.57352 5.37852 8.54243 6.40961C7.51134 7.44071 6.93134 8.83869 6.92969 10.2969C6.92969 15.0031 11.9297 18.5594 12.1422 18.7094C12.2273 18.7661 12.3274 18.7963 12.4297 18.7963C12.532 18.7963 12.632 18.7661 12.7172 18.7094C12.9297 18.5594 17.9297 15.0031 17.9297 10.2969C17.928 8.83869 17.348 7.44071 16.3169 6.40961C15.2859 5.37852 13.8879 4.79853 12.4297 4.79688ZM12.4297 8.29688C12.8253 8.29688 13.2119 8.41417 13.5408 8.63394C13.8697 8.8537 14.1261 9.16606 14.2774 9.53151C14.4288 9.89696 14.4684 10.2991 14.3913 10.6871C14.3141 11.075 14.1236 11.4314 13.8439 11.7111C13.5642 11.9908 13.2078 12.1813 12.8199 12.2584C12.4319 12.3356 12.0298 12.296 11.6643 12.1446C11.2989 11.9933 10.9865 11.7369 10.7667 11.408C10.547 11.0791 10.4297 10.6924 10.4297 10.2969C10.4297 9.76644 10.6404 9.25773 11.0155 8.88266C11.3905 8.50759 11.8993 8.29688 12.4297 8.29688Z" fill="white"/>
</svg>
