<svg width="64" height="64" viewBox="0 0 64 64" fill="none" xmlns="http://www.w3.org/2000/svg">
<circle cx="32" cy="32" r="32" fill="#B0E3FF" fill-opacity="0.6"/>
<circle cx="32" cy="32" r="31.5" stroke="url(#paint0_linear_52_26098)" stroke-opacity="0.3"/>
<mask id="mask0_52_26098" style="mask-type:alpha" maskUnits="userSpaceOnUse" x="0" y="0" width="64" height="64">
<circle cx="32" cy="32" r="32" fill="#B0E3FF"/>
<circle cx="32" cy="32" r="31.5" stroke="url(#paint1_linear_52_26098)" stroke-opacity="0.3"/>
</mask>
<g mask="url(#mask0_52_26098)">
<rect x="5.5" y="43.7031" width="15.1724" height="23.646" rx="3" fill="url(#paint2_linear_52_26098)"/>
<rect x="24.9141" y="33.9337" width="15.1724" height="33.4159" rx="3" fill="url(#paint3_linear_52_26098)"/>
<rect x="44.3281" y="27.3496" width="15.1724" height="40" rx="3" fill="url(#paint4_linear_52_26098)"/>
<circle cx="24.5" cy="26.6855" r="12" fill="#52B6FF"/>
<path d="M25.8487 24.6852C27.2766 23.2573 29.4062 22.9029 30.6003 22.8209C31.1088 22.786 31.5118 23.189 31.4769 23.6975C31.395 24.8916 31.0405 27.0212 29.6126 28.4491C28.5463 29.5155 27.0872 29.9832 25.9195 30.1857C24.8606 30.3694 23.9285 29.4372 24.1121 28.3783C24.3147 27.2107 24.7824 25.7515 25.8487 24.6852Z" fill="white"/>
<path d="M19.597 26.6094C17.9697 24.9821 17.5972 22.5338 17.5192 21.229C17.4887 20.7201 17.8899 20.3188 18.3988 20.3492C19.7034 20.4271 22.1514 20.7994 23.7792 22.4272C24.9641 23.6121 25.4837 25.2334 25.7085 26.5304C25.9127 27.707 24.8768 28.7429 23.7002 28.5387C22.4032 28.3147 20.7827 27.7951 19.597 26.6094Z" fill="white"/>
<path d="M24.0875 32.2176C24.0875 32.6724 24.4562 33.041 24.9109 33.041V33.041C25.3657 33.041 25.7344 32.6724 25.7344 32.2176L25.7344 28.7231C25.7344 28.339 25.4101 28.0319 25.0301 27.9758V27.9758C24.555 27.9056 24.0875 28.2445 24.0875 28.7248L24.0875 32.2176Z" fill="white"/>
</g>
<defs>
<linearGradient id="paint0_linear_52_26098" x1="32" y1="0" x2="32" y2="64" gradientUnits="userSpaceOnUse">
<stop stop-color="#52B6FF" stop-opacity="0"/>
<stop offset="1" stop-color="#A2D8FF"/>
</linearGradient>
<linearGradient id="paint1_linear_52_26098" x1="32" y1="0" x2="32" y2="64" gradientUnits="userSpaceOnUse">
<stop stop-color="#52B6FF"/>
<stop offset="1" stop-color="#52B6FF" stop-opacity="0"/>
</linearGradient>
<linearGradient id="paint2_linear_52_26098" x1="13.0862" y1="43.7031" x2="13.0862" y2="67.3492" gradientUnits="userSpaceOnUse">
<stop stop-color="white"/>
<stop offset="1" stop-color="#F9FAFF"/>
</linearGradient>
<linearGradient id="paint3_linear_52_26098" x1="32.5002" y1="33.9337" x2="32.5002" y2="67.3497" gradientUnits="userSpaceOnUse">
<stop stop-color="white"/>
<stop offset="1" stop-color="#F9FAFF"/>
</linearGradient>
<linearGradient id="paint4_linear_52_26098" x1="51.9143" y1="27.3496" x2="51.9143" y2="67.3496" gradientUnits="userSpaceOnUse">
<stop stop-color="white"/>
<stop offset="1" stop-color="#F9FAFF"/>
</linearGradient>
</defs>
</svg>
