<svg width="64" height="64" viewBox="0 0 64 64" fill="none" xmlns="http://www.w3.org/2000/svg">
<circle cx="32" cy="32" r="32" fill="#896BFF" fill-opacity="0.6"/>
<circle cx="32" cy="32" r="31.5" stroke="url(#paint0_linear_52_26147)" stroke-opacity="0.3"/>
<mask id="mask0_52_26147" style="mask-type:alpha" maskUnits="userSpaceOnUse" x="0" y="0" width="64" height="64">
<circle cx="32" cy="32" r="32" fill="#896BFF"/>
<circle cx="32" cy="32" r="31.5" stroke="url(#paint1_linear_52_26147)" stroke-opacity="0.3"/>
</mask>
<g mask="url(#mask0_52_26147)">
<path fill-rule="evenodd" clip-rule="evenodd" d="M20.75 23.6211H43.25C48.4269 23.6211 52.625 27.7259 52.625 32.7878V43.7878C52.625 48.8496 48.4269 52.9544 43.25 52.9544C38.8566 52.9544 37.0368 51.0671 35.5292 49.5036C34.4632 48.3981 33.5533 47.4544 32 47.4544C30.4467 47.4544 29.5368 48.3981 28.4708 49.5036C26.9632 51.0671 25.1434 52.9544 20.75 52.9544C15.5731 52.9544 11.375 48.8496 11.375 43.7878V32.7878C11.375 27.7259 15.5731 23.6211 20.75 23.6211ZM43.2512 34.2096C44.2867 34.2096 45.1262 33.3888 45.1262 32.3763C45.1262 31.3638 44.2867 30.543 43.2512 30.543C42.2157 30.543 41.3762 31.3638 41.3762 32.3763C41.3762 33.3888 42.2157 34.2096 43.2512 34.2096ZM22.6264 37.8766V39.7101C22.6264 40.7221 21.7864 41.5435 20.7514 41.5435C19.7164 41.5435 18.8764 40.7221 18.8764 39.7101V37.8766H17C15.965 37.8766 15.125 37.0553 15.125 36.0433C15.125 35.0313 15.965 34.2099 17 34.2099H18.8764V32.3768C18.8764 31.3648 19.7164 30.5435 20.7514 30.5435C21.7864 30.5435 22.6264 31.3648 22.6264 32.3768V34.2099H24.5C25.535 34.2099 26.375 35.0313 26.375 36.0433C26.375 37.0553 25.535 37.8766 24.5 37.8766H22.6264ZM43.2512 41.5426C44.2867 41.5426 45.1262 40.7218 45.1262 39.7092C45.1262 38.6967 44.2867 37.8759 43.2512 37.8759C42.2157 37.8759 41.3762 38.6967 41.3762 39.7092C41.3762 40.7218 42.2157 41.5426 43.2512 41.5426ZM46.9984 37.8761C48.0339 37.8761 48.8734 37.0553 48.8734 36.0428C48.8734 35.0302 48.0339 34.2094 46.9984 34.2094C45.9628 34.2094 45.1234 35.0302 45.1234 36.0428C45.1234 37.0553 45.9628 37.8761 46.9984 37.8761ZM39.4998 37.8761C40.5354 37.8761 41.3748 37.0553 41.3748 36.0428C41.3748 35.0302 40.5354 34.2094 39.4998 34.2094C38.4643 34.2094 37.6248 35.0302 37.6248 36.0428C37.6248 37.0553 38.4643 37.8761 39.4998 37.8761Z" fill="white"/>
<circle cx="32" cy="18.543" r="12" fill="#896BFF"/>
<path d="M34.3625 24.543H37C37.2652 24.543 37.5196 24.4376 37.7071 24.2501C37.8946 24.0625 38 23.8082 38 23.543V21.1867C37.9997 21.1047 37.979 21.024 37.9397 20.952C37.9004 20.88 37.8438 20.8189 37.775 20.7742C37.7072 20.7274 37.6284 20.6988 37.5463 20.6911C37.4643 20.6835 37.3816 20.697 37.3062 20.7305C37.1291 20.8004 36.9404 20.8365 36.75 20.8367C35.925 20.8367 35.25 20.143 35.25 19.293C35.25 18.443 35.925 17.7492 36.75 17.7492C36.9404 17.7494 37.1291 17.7855 37.3062 17.8555C37.3816 17.8889 37.4643 17.9025 37.5463 17.8948C37.6284 17.8872 37.7072 17.8585 37.775 17.8117C37.8438 17.7671 37.9004 17.706 37.9397 17.6339C37.979 17.5619 37.9997 17.4813 38 17.3992V15.043C38 14.7778 37.8946 14.5234 37.7071 14.3359C37.5196 14.1483 37.2652 14.043 37 14.043H34.7375C34.7438 13.9617 34.75 13.8742 34.75 13.793C34.75 13.1962 34.5129 12.6239 34.091 12.202C33.669 11.78 33.0967 11.543 32.5 11.543C31.9033 11.543 31.331 11.78 30.909 12.202C30.4871 12.6239 30.25 13.1962 30.25 13.793C30.25 13.8742 30.2562 13.9617 30.2625 14.043H28C27.7348 14.043 27.4804 14.1483 27.2929 14.3359C27.1054 14.5234 27 14.7778 27 15.043V17.0555L26.75 17.043C26.1533 17.043 25.581 17.28 25.159 17.702C24.7371 18.1239 24.5 18.6962 24.5 19.293C24.5 19.8897 24.7371 20.462 25.159 20.884C25.581 21.3059 26.1533 21.543 26.75 21.543L27 21.5305V23.543C27 23.8082 27.1054 24.0625 27.2929 24.2501C27.4804 24.4376 27.7348 24.543 28 24.543H30.6375" fill="white"/>
<path d="M22.6264 37.8761V39.7096C22.6264 40.7216 21.7864 41.543 20.7514 41.543C19.7164 41.543 18.8764 40.7216 18.8764 39.7096V37.8761H17C15.965 37.8761 15.125 37.0548 15.125 36.0428C15.125 35.0308 15.965 34.2094 17 34.2094H18.8764V32.3763C18.8764 31.3643 19.7164 30.543 20.7514 30.543C21.7864 30.543 22.6264 31.3643 22.6264 32.3763V34.2094H24.5C25.535 34.2094 26.375 35.0308 26.375 36.0428C26.375 37.0548 25.535 37.8761 24.5 37.8761H22.6264Z" fill="#896BFF"/>
</g>
<defs>
<linearGradient id="paint0_linear_52_26147" x1="32" y1="0" x2="32" y2="64" gradientUnits="userSpaceOnUse">
<stop stop-color="#896BFF" stop-opacity="0"/>
<stop offset="1" stop-color="#663AE7"/>
</linearGradient>
<linearGradient id="paint1_linear_52_26147" x1="32" y1="0" x2="32" y2="64" gradientUnits="userSpaceOnUse">
<stop stop-color="#52B6FF"/>
<stop offset="1" stop-color="#52B6FF" stop-opacity="0"/>
</linearGradient>
</defs>
</svg>
