<svg width="64" height="64" viewBox="0 0 64 64" fill="none" xmlns="http://www.w3.org/2000/svg">
<circle cx="32" cy="32" r="32" fill="#896BFF" fill-opacity="0.6"/>
<circle cx="32" cy="32" r="31.5" stroke="url(#paint0_linear_47_25853)" stroke-opacity="0.3"/>
<mask id="mask0_47_25853" style="mask-type:alpha" maskUnits="userSpaceOnUse" x="0" y="0" width="64" height="64">
<circle cx="32" cy="32" r="32" fill="#B0E3FF"/>
<circle cx="32" cy="32" r="31.5" stroke="url(#paint1_linear_47_25853)" stroke-opacity="0.3"/>
</mask>
<g mask="url(#mask0_47_25853)">
<path d="M-1.375 42.9966C-1.375 41.3397 -0.0318541 39.9966 1.625 39.9966H14.3995V64.8907H3.625C0.863573 64.8907 -1.375 62.6521 -1.375 59.8907V42.9966Z" fill="#896BFF"/>
<path d="M52.0908 64.8906H4.61914C6.74079 64.8906 8.46072 63.1707 8.46072 61.0491V23.1738C8.46072 20.9647 10.2516 19.1738 12.4607 19.1738H52.0908C54.2999 19.1738 56.0908 20.9647 56.0908 23.1738V60.8906C56.0908 63.0998 54.2999 64.8906 52.0908 64.8906Z" fill="white"/>
<rect x="25.251" y="37.4219" width="2.96235" height="11.1242" rx="1.48118" transform="rotate(90 25.251 37.4219)" fill="#896BFF"/>
<rect x="34.2158" y="44.334" width="2.96235" height="20.0044" rx="1.48118" transform="rotate(90 34.2158 44.334)" fill="#CBD0EA"/>
<rect x="49.8721" y="37.4219" width="2.96235" height="22.4799" rx="1.48118" transform="rotate(90 49.8721 37.4219)" fill="#CBD0EA"/>
<rect x="49.8604" y="44.334" width="2.96235" height="13.5014" rx="1.48118" transform="rotate(90 49.8604 44.334)" fill="#896BFF"/>
<circle cx="31.5" cy="19.7656" r="12" fill="#896BFF"/>
<path d="M31.8125 26.0156C35.1262 26.0156 37.8125 23.3293 37.8125 20.0156C37.8125 16.7019 35.1262 14.0156 31.8125 14.0156C28.4988 14.0156 25.8125 16.7019 25.8125 20.0156C25.8125 23.3293 28.4988 26.0156 31.8125 26.0156Z" fill="white" stroke="white" stroke-width="1.2" stroke-linecap="round" stroke-linejoin="round"/>
<path d="M34.5625 18.5156L30.8938 22.0156L29.0625 20.2656" stroke="#896BFF" stroke-width="1.2" stroke-linecap="round" stroke-linejoin="round"/>
</g>
<defs>
<linearGradient id="paint0_linear_47_25853" x1="32" y1="0" x2="32" y2="64" gradientUnits="userSpaceOnUse">
<stop stop-color="#896BFF" stop-opacity="0"/>
<stop offset="1" stop-color="#663AE7"/>
</linearGradient>
<linearGradient id="paint1_linear_47_25853" x1="32" y1="0" x2="32" y2="64" gradientUnits="userSpaceOnUse">
<stop stop-color="#52B6FF"/>
<stop offset="1" stop-color="#52B6FF" stop-opacity="0"/>
</linearGradient>
</defs>
</svg>
