<svg width="25" height="25" viewBox="0 0 25 25" fill="none" xmlns="http://www.w3.org/2000/svg">
<circle cx="12.1797" cy="12.0469" r="12" fill="#A7DFFF"/>
<path d="M18.3047 14.1966L15.3734 12.9466C15.2222 12.8788 15.0562 12.8507 14.891 12.865C14.7259 12.8792 14.5671 12.9352 14.4297 13.0279L12.8609 14.0716C11.9048 13.6073 11.1307 12.8376 10.6609 11.8841L11.6984 10.2966C11.7905 10.1591 11.8467 10.0007 11.8619 9.83586C11.8772 9.67105 11.8511 9.50504 11.7859 9.35289L10.5297 6.42164C10.442 6.22371 10.2936 6.05885 10.1059 5.95096C9.91825 5.84308 9.70109 5.79778 9.48594 5.82164C8.64193 5.9322 7.86679 6.34549 7.30464 6.98467C6.74248 7.62385 6.43156 8.44542 6.42969 9.29664C6.42969 14.2591 10.4672 18.2966 15.4297 18.2966C16.2809 18.2948 17.1025 17.9838 17.7417 17.4217C18.3808 16.8595 18.7941 16.0844 18.9047 15.2404C18.9285 15.0252 18.8832 14.8081 18.7754 14.6204C18.6675 14.4327 18.5026 14.2843 18.3047 14.1966Z" fill="white"/>
</svg>
