<svg width="64" height="64" viewBox="0 0 64 64" fill="none" xmlns="http://www.w3.org/2000/svg">
<circle cx="32" cy="32" r="32" fill="#896BFF" fill-opacity="0.6"/>
<circle cx="32" cy="32" r="31.5" stroke="url(#paint0_linear_47_25907)" stroke-opacity="0.3"/>
<mask id="mask0_47_25907" style="mask-type:alpha" maskUnits="userSpaceOnUse" x="0" y="0" width="64" height="64">
<circle cx="32" cy="32" r="32" fill="#B0E3FF"/>
<circle cx="32" cy="32" r="31.5" stroke="url(#paint1_linear_47_25907)" stroke-opacity="0.3"/>
</mask>
<g mask="url(#mask0_47_25907)">
<rect x="5.5" y="43.4434" width="15.1724" height="23.646" rx="3" fill="url(#paint2_linear_47_25907)"/>
<rect x="24.9141" y="33.6738" width="15.1724" height="33.4159" rx="3" fill="url(#paint3_linear_47_25907)"/>
<rect x="44.3281" y="27.0898" width="15.1724" height="40" rx="3" fill="url(#paint4_linear_47_25907)"/>
<circle cx="24.5" cy="26.4258" r="12" fill="#896BFF"/>
<path d="M25.8487 24.4254C27.2766 22.9976 29.4062 22.6431 30.6003 22.5611C31.1088 22.5262 31.5118 22.9292 31.4769 23.4378C31.395 24.6319 31.0405 26.7615 29.6126 28.1893C28.5463 29.2557 27.0872 29.7234 25.9195 29.926C24.8606 30.1096 23.9285 29.1775 24.1121 28.1185C24.3147 26.9509 24.7824 25.4918 25.8487 24.4254Z" fill="white"/>
<path d="M19.597 26.3495C17.9697 24.7222 17.5972 22.2739 17.5192 20.9691C17.4887 20.4603 17.8899 20.0589 18.3988 20.0893C19.7034 20.1672 22.1514 20.5395 23.7792 22.1673C24.9641 23.3522 25.4837 24.9736 25.7085 26.2705C25.9127 27.4471 24.8768 28.483 23.7002 28.2788C22.4032 28.0548 20.7827 27.5353 19.597 26.3495Z" fill="white"/>
<path d="M24.0875 31.9578C24.0875 32.4126 24.4562 32.7812 24.9109 32.7812V32.7812C25.3657 32.7812 25.7344 32.4126 25.7344 31.9578L25.7344 28.4633C25.7344 28.0793 25.4101 27.7722 25.0301 27.716V27.716C24.555 27.6458 24.0875 27.9848 24.0875 28.465L24.0875 31.9578Z" fill="white"/>
</g>
<defs>
<linearGradient id="paint0_linear_47_25907" x1="32" y1="0" x2="32" y2="64" gradientUnits="userSpaceOnUse">
<stop stop-color="#896BFF" stop-opacity="0"/>
<stop offset="1" stop-color="#663AE7"/>
</linearGradient>
<linearGradient id="paint1_linear_47_25907" x1="32" y1="0" x2="32" y2="64" gradientUnits="userSpaceOnUse">
<stop stop-color="#52B6FF"/>
<stop offset="1" stop-color="#52B6FF" stop-opacity="0"/>
</linearGradient>
<linearGradient id="paint2_linear_47_25907" x1="13.0862" y1="43.4434" x2="13.0862" y2="67.0894" gradientUnits="userSpaceOnUse">
<stop stop-color="white"/>
<stop offset="1" stop-color="#F9FAFF"/>
</linearGradient>
<linearGradient id="paint3_linear_47_25907" x1="32.5002" y1="33.6738" x2="32.5002" y2="67.0898" gradientUnits="userSpaceOnUse">
<stop stop-color="white"/>
<stop offset="1" stop-color="#F9FAFF"/>
</linearGradient>
<linearGradient id="paint4_linear_47_25907" x1="51.9143" y1="27.0898" x2="51.9143" y2="67.0898" gradientUnits="userSpaceOnUse">
<stop stop-color="white"/>
<stop offset="1" stop-color="#F9FAFF"/>
</linearGradient>
</defs>
</svg>
