<svg width="64" height="64" viewBox="0 0 64 64" fill="none" xmlns="http://www.w3.org/2000/svg">
<circle cx="32" cy="32" r="32" fill="#B0E3FF" fill-opacity="0.6"/>
<circle cx="32" cy="32" r="31.5" stroke="url(#paint0_linear_52_26133)" stroke-opacity="0.3"/>
<mask id="mask0_52_26133" style="mask-type:alpha" maskUnits="userSpaceOnUse" x="0" y="0" width="64" height="64">
<circle cx="32" cy="32" r="32" fill="#B0E3FF"/>
<circle cx="32" cy="32" r="31.5" stroke="url(#paint1_linear_52_26133)" stroke-opacity="0.3"/>
</mask>
<g mask="url(#mask0_52_26133)">
<circle cx="44.4374" cy="41.2548" r="21.5276" transform="rotate(-30 44.4374 41.2548)" fill="white"/>
<ellipse cx="44.4372" cy="41.2548" rx="16.2966" ry="21.5276" transform="rotate(-30 44.4372 41.2548)" fill="#A7DFFF"/>
<ellipse cx="44.0017" cy="41.5062" rx="7.54471" ry="21.5276" transform="rotate(-30 44.0017 41.5062)" fill="white"/>
<circle cx="24.5" cy="20" r="12" fill="#52B6FF"/>
<path d="M29.7024 23.3734C30.1109 23.6093 30.6386 23.4708 30.8233 23.0368C31.0729 22.4504 31.2423 21.8316 31.3258 21.1971C31.4466 20.2797 31.3855 19.3475 31.146 18.4537C30.9065 17.56 30.4933 16.7221 29.93 15.988C29.3667 15.2539 28.6644 14.6379 27.863 14.1753C27.0617 13.7126 26.1771 13.4124 25.2597 13.2916C24.3423 13.1708 23.4101 13.2319 22.5163 13.4714C21.6225 13.7109 20.7847 14.1241 20.0506 14.6873C19.5429 15.0769 19.0917 15.533 18.7086 16.0424C18.4251 16.4193 18.569 16.9455 18.9775 17.1814L29.7024 23.3734Z" fill="white"/>
<path d="M25.1121 19.3672L21.3221 25.9316" stroke="white" stroke-linecap="round"/>
</g>
<defs>
<linearGradient id="paint0_linear_52_26133" x1="32" y1="0" x2="32" y2="64" gradientUnits="userSpaceOnUse">
<stop stop-color="#52B6FF" stop-opacity="0"/>
<stop offset="1" stop-color="#A2D8FF"/>
</linearGradient>
<linearGradient id="paint1_linear_52_26133" x1="32" y1="0" x2="32" y2="64" gradientUnits="userSpaceOnUse">
<stop stop-color="#52B6FF"/>
<stop offset="1" stop-color="#52B6FF" stop-opacity="0"/>
</linearGradient>
</defs>
</svg>
