<svg width="25" height="25" viewBox="0 0 25 25" fill="none" xmlns="http://www.w3.org/2000/svg">
<circle cx="12.1125" cy="12.7617" r="12" fill="#52B6FF"/>
<path d="M12.5501 6.31445C11.2645 6.31445 10.0078 6.69567 8.93885 7.4099C7.86993 8.12413 7.0368 9.13929 6.54483 10.327C6.05287 11.5147 5.92414 12.8217 6.17495 14.0825C6.42575 15.3434 7.04482 16.5016 7.95386 17.4106C8.8629 18.3197 10.0211 18.9388 11.282 19.1896C12.5428 19.4404 13.8498 19.3116 15.0375 18.8197C16.2252 18.3277 17.2404 17.4946 17.9546 16.4257C18.6688 15.3567 19.0501 14.1 19.0501 12.8145C19.0467 11.0916 18.3609 9.44018 17.1426 8.22191C15.9243 7.00364 14.2729 6.31776 12.5501 6.31445ZM16.0501 13.3145H12.5501C12.4174 13.3145 12.2903 13.2618 12.1965 13.168C12.1027 13.0742 12.0501 12.9471 12.0501 12.8145V9.31445C12.0501 9.18184 12.1027 9.05467 12.1965 8.9609C12.2903 8.86713 12.4174 8.81445 12.5501 8.81445C12.6827 8.81445 12.8098 8.86713 12.9036 8.9609C12.9974 9.05467 13.0501 9.18184 13.0501 9.31445V12.3145H16.0501C16.1827 12.3145 16.3098 12.3671 16.4036 12.4609C16.4974 12.5547 16.5501 12.6818 16.5501 12.8145C16.5501 12.9471 16.4974 13.0742 16.4036 13.168C16.3098 13.2618 16.1827 13.3145 16.0501 13.3145Z" fill="white"/>
</svg>
