<svg width="25" height="25" viewBox="0 0 25 25" fill="none" xmlns="http://www.w3.org/2000/svg">
<circle cx="12.1797" cy="12.5469" r="12" fill="#52B6FF"/>
<path d="M5.51367 9.73438C5.51367 8.62981 6.4091 7.73438 7.51367 7.73438H16.347C17.4516 7.73438 18.347 8.62981 18.347 9.73438V12.6484V15.3594C18.347 16.4639 17.4516 17.3594 16.347 17.3594C15.4069 17.3594 14.4684 17.3594 14.3672 17.3594C11.8594 17.3594 11.3906 17.3594 11.3906 17.3594C11.305 17.3594 9.18298 17.3594 7.51348 17.3594C6.40913 17.3594 5.5146 16.4643 5.51429 15.3599L5.51367 13.1172V9.73438Z" fill="white"/>
<path d="M17.9297 8.04688L12.6054 12.9275C12.2231 13.2779 11.6363 13.2779 11.254 12.9275L5.92969 8.04688" stroke="#52B6FF" stroke-width="1.2" stroke-linecap="round" stroke-linejoin="round"/>
</svg>
