<svg width="72" height="64" viewBox="0 0 72 64" fill="none" xmlns="http://www.w3.org/2000/svg">
<circle cx="32" cy="32" r="32" fill="#B0E3FF" fill-opacity="0.6"/>
<circle cx="32" cy="32" r="31.5" stroke="url(#paint0_linear_47_25886)" stroke-opacity="0.3"/>
<rect x="22.2422" y="15.5874" width="49.1422" height="32.359" rx="16.1795" fill="url(#paint1_linear_47_25886)"/>
<circle cx="37.8125" cy="31.7671" r="2.5" fill="#52B6FF"/>
<circle cx="46.8125" cy="31.7671" r="2.5" fill="#52B6FF"/>
<circle cx="55.8125" cy="31.7671" r="2.5" fill="#52B6FF"/>
<path d="M40.7996 52.5944C40.2561 53.5357 38.8974 53.5357 38.3539 52.5944L35.5515 47.7405C35.008 46.7992 35.6874 45.6225 36.7744 45.6225L42.3791 45.6225C43.4661 45.6225 44.1455 46.7992 43.602 47.7405L40.7996 52.5944Z" fill="url(#paint2_linear_47_25886)"/>
<circle cx="20" cy="38.9614" r="12" fill="#52B6FF"/>
<path d="M20.0156 46.9927C24.4339 46.9927 28.0156 43.411 28.0156 38.9927C28.0156 34.5744 24.4339 30.9927 20.0156 30.9927C15.5973 30.9927 12.0156 34.5744 12.0156 38.9927C12.0156 43.411 15.5973 46.9927 20.0156 46.9927Z" fill="white"/>
<path d="M12.4736 36.3259H27.557" stroke="#52B6FF" stroke-linecap="round" stroke-linejoin="round"/>
<path d="M12.4736 41.6594H27.557" stroke="#52B6FF" stroke-linecap="round" stroke-linejoin="round"/>
<path d="M20.016 46.7761C21.8569 46.7761 23.3493 43.2914 23.3493 38.9928C23.3493 34.6942 21.8569 31.2095 20.016 31.2095C18.175 31.2095 16.6826 34.6942 16.6826 38.9928C16.6826 43.2914 18.175 46.7761 20.016 46.7761Z" stroke="#52B6FF" stroke-miterlimit="10"/>
<defs>
<linearGradient id="paint0_linear_47_25886" x1="32" y1="0" x2="32" y2="64" gradientUnits="userSpaceOnUse">
<stop stop-color="#52B6FF" stop-opacity="0"/>
<stop offset="1" stop-color="#A2D8FF"/>
</linearGradient>
<linearGradient id="paint1_linear_47_25886" x1="46.8133" y1="15.5874" x2="46.8133" y2="47.9464" gradientUnits="userSpaceOnUse">
<stop stop-color="white"/>
<stop offset="1" stop-color="#F9FAFF"/>
</linearGradient>
<linearGradient id="paint2_linear_47_25886" x1="39.5768" y1="54.7124" x2="39.5768" y2="42.5925" gradientUnits="userSpaceOnUse">
<stop stop-color="white"/>
<stop offset="1" stop-color="#F9FAFF"/>
</linearGradient>
</defs>
</svg>
