<svg width="28" height="29" viewBox="0 0 28 29" fill="none" xmlns="http://www.w3.org/2000/svg">
<circle cx="14" cy="14.959" r="14" fill="#896BFF"/>
<path d="M20.1875 8.91113H7.8125C7.51413 8.91113 7.22798 9.02966 7.017 9.24064C6.80603 9.45162 6.6875 9.73776 6.6875 10.0361V20.1611C6.6875 20.4595 6.80603 20.7456 7.017 20.9566C7.22798 21.1676 7.51413 21.2861 7.8125 21.2861H20.1875C20.4859 21.2861 20.772 21.1676 20.983 20.9566C21.194 20.7456 21.3125 20.4595 21.3125 20.1611V10.0361C21.3125 9.73776 21.194 9.45162 20.983 9.24064C20.772 9.02966 20.4859 8.91113 20.1875 8.91113ZM17.6562 17.9111H10.3438C10.1946 17.9111 10.0515 17.8519 9.946 17.7464C9.84051 17.6409 9.78125 17.4978 9.78125 17.3486C9.78125 17.1994 9.84051 17.0564 9.946 16.9509C10.0515 16.8454 10.1946 16.7861 10.3438 16.7861H17.6562C17.8054 16.7861 17.9485 16.8454 18.054 16.9509C18.1595 17.0564 18.2188 17.1994 18.2188 17.3486C18.2188 17.4978 18.1595 17.6409 18.054 17.7464C17.9485 17.8519 17.8054 17.9111 17.6562 17.9111ZM17.6562 15.6611H10.3438C10.1946 15.6611 10.0515 15.6019 9.946 15.4964C9.84051 15.3909 9.78125 15.2478 9.78125 15.0986C9.78125 14.9494 9.84051 14.8064 9.946 14.7009C10.0515 14.5954 10.1946 14.5361 10.3438 14.5361H17.6562C17.8054 14.5361 17.9485 14.5954 18.054 14.7009C18.1595 14.8064 18.2188 14.9494 18.2188 15.0986C18.2188 15.2478 18.1595 15.3909 18.054 15.4964C17.9485 15.6019 17.8054 15.6611 17.6562 15.6611ZM17.6562 13.4111H10.3438C10.1946 13.4111 10.0515 13.3519 9.946 13.2464C9.84051 13.1409 9.78125 12.9978 9.78125 12.8486C9.78125 12.6994 9.84051 12.5564 9.946 12.4509C10.0515 12.3454 10.1946 12.2861 10.3438 12.2861H17.6562C17.8054 12.2861 17.9485 12.3454 18.054 12.4509C18.1595 12.5564 18.2188 12.6994 18.2188 12.8486C18.2188 12.9978 18.1595 13.1409 18.054 13.2464C17.9485 13.3519 17.8054 13.4111 17.6562 13.4111Z" fill="white"/>
</svg>
