<svg width="28" height="29" viewBox="0 0 28 29" fill="none" xmlns="http://www.w3.org/2000/svg">
<circle cx="14" cy="14.959" r="14" fill="#A7DFFF"/>
<path d="M21.6998 12.9323C21.6824 12.8537 21.6482 12.7797 21.5997 12.7154C21.5512 12.6511 21.4894 12.598 21.4186 12.5597L19.7451 11.6315C19.6561 11.4487 19.5576 11.2729 19.4498 11.1042L19.4779 9.19169C19.4786 9.11147 19.4627 9.03198 19.4312 8.95819C19.3998 8.88439 19.3534 8.81787 19.2951 8.76278C18.4619 8.00732 17.4765 7.4391 16.4053 7.09638C16.3284 7.07239 16.2472 7.065 16.1672 7.0747C16.0872 7.08439 16.0102 7.11095 15.9412 7.15263L14.3029 8.137C14.099 8.12997 13.9022 8.12997 13.6983 8.137L12.06 7.15263C11.991 7.11095 11.914 7.08439 11.834 7.0747C11.754 7.065 11.6728 7.07239 11.5959 7.09638C10.5233 7.43937 9.53747 8.01022 8.70607 8.76981C8.64725 8.82301 8.6005 8.88818 8.56897 8.96095C8.53743 9.03372 8.52185 9.11239 8.52326 9.19169L8.55842 11.1042C8.44592 11.2729 8.34748 11.4487 8.24904 11.6315L6.58263 12.5597C6.51092 12.5969 6.44844 12.6496 6.39978 12.7141C6.35111 12.7786 6.31749 12.8531 6.30138 12.9323C6.0623 14.0304 6.0623 15.1671 6.30138 16.2651C6.31885 16.3438 6.353 16.4177 6.40152 16.482C6.45004 16.5463 6.51181 16.5994 6.58263 16.6378L8.25607 17.5659C8.34578 17.7478 8.44676 17.9239 8.55842 18.0933L8.52326 20.0057C8.52262 20.086 8.53852 20.1655 8.56997 20.2393C8.60143 20.313 8.64776 20.3796 8.70607 20.4347C9.54045 21.1885 10.5255 21.7565 11.5959 22.1011C11.6728 22.125 11.754 22.1324 11.834 22.1227C11.914 22.113 11.991 22.0865 12.06 22.0448L13.6983 21.0604H14.3029L15.9483 22.0448C16.0338 22.1011 16.1342 22.1304 16.2365 22.1292C16.2937 22.1267 16.3504 22.1173 16.4053 22.1011C17.4779 21.7581 18.4637 21.1872 19.2951 20.4276C19.354 20.3744 19.4007 20.3093 19.4322 20.2365C19.4638 20.1637 19.4794 20.085 19.4779 20.0057L19.4498 18.0933C19.5553 17.9245 19.6537 17.7487 19.7522 17.5659L21.4256 16.6378C21.4954 16.599 21.556 16.5457 21.6034 16.4814C21.6507 16.4171 21.6836 16.3433 21.6998 16.2651C21.9389 15.1671 21.9389 14.0304 21.6998 12.9323ZM17.0944 14.5987C17.0944 15.2106 16.9129 15.8087 16.573 16.3175C16.233 16.8263 15.7498 17.2228 15.1845 17.457C14.6192 17.6911 13.9972 17.7524 13.397 17.633C12.7969 17.5137 12.2457 17.219 11.813 16.7863C11.3803 16.3537 11.0857 15.8024 10.9663 15.2023C10.8469 14.6022 10.9082 13.9801 11.1424 13.4148C11.3765 12.8495 11.773 12.3663 12.2818 12.0264C12.7906 11.6864 13.3887 11.505 14.0006 11.505C14.8211 11.505 15.608 11.8309 16.1882 12.4111C16.7684 12.9913 17.0944 13.7782 17.0944 14.5987Z" fill="white"/>
</svg>
