<svg width="582" height="242" viewBox="0 0 582 242" fill="none" xmlns="http://www.w3.org/2000/svg">
<path d="M157.488 151.143H182.428V192.377H157.488V237.601H114.259V192.377H0.200352V151.143L73.025 4.82862H121.242L48.7501 151.143H114.259V99.2678H157.488V151.143ZM292.026 241.924C272.739 241.924 255.891 236.936 241.481 226.96C227.293 216.763 216.32 202.575 208.56 184.396C201.023 166.218 197.254 145.157 197.254 121.215C197.254 97.2726 201.023 76.2122 208.56 58.0338C216.32 39.8554 227.293 25.7782 241.481 15.8022C255.891 5.60452 272.739 0.505691 292.026 0.505691C311.313 0.505691 328.05 5.60452 342.239 15.8022C356.427 25.7782 367.289 39.8554 374.827 58.0338C382.586 76.2122 386.465 97.2726 386.465 121.215C386.465 145.157 382.586 166.218 374.827 184.396C367.289 202.575 356.427 216.763 342.239 226.96C328.05 236.936 311.313 241.924 292.026 241.924ZM292.026 198.362C307.766 198.362 320.181 192.044 329.27 179.408C338.581 166.55 343.236 147.152 343.236 121.215C343.236 95.2774 338.581 75.9906 329.27 63.3543C320.181 50.4964 307.766 44.0675 292.026 44.0675C276.286 44.0675 263.761 50.4964 254.45 63.3543C245.361 75.9906 240.816 95.2774 240.816 121.215C240.816 147.152 245.361 166.55 254.45 179.408C263.761 192.044 276.286 198.362 292.026 198.362ZM556.917 151.143H581.857V192.377H556.917V237.601H513.688V192.377H399.629V151.143L472.454 4.82862H520.671L448.179 151.143H513.688V99.2678H556.917V151.143Z" fill="white" fill-opacity="0.7"/>
<path d="M157.488 151.143H156.405V152.227H157.488V151.143ZM182.428 151.143H183.512V150.059H182.428V151.143ZM182.428 192.377V193.461H183.512V192.377H182.428ZM157.488 192.377V191.293H156.405V192.377H157.488ZM157.488 237.601V238.685H158.572V237.601H157.488ZM114.259 237.601H113.175V238.685H114.259V237.601ZM114.259 192.377H115.343V191.293H114.259V192.377ZM0.200352 192.377H-0.883329V193.461H0.200352V192.377ZM0.200352 151.143L-0.769803 150.66L-0.883329 150.888V151.143H0.200352ZM73.025 4.82862V3.74493H72.3538L72.0548 4.34575L73.025 4.82862ZM121.242 4.82862L122.213 5.30972L122.988 3.74493H121.242V4.82862ZM48.7501 151.143L47.7791 150.662L47.0038 152.227H48.7501V151.143ZM114.259 151.143V152.227H115.343V151.143H114.259ZM114.259 99.2678V98.1842H113.175V99.2678H114.259ZM157.488 99.2678H158.572V98.1842H157.488V99.2678ZM157.488 152.227H182.428V150.059H157.488V152.227ZM181.344 151.143V192.377H183.512V151.143H181.344ZM182.428 191.293H157.488V193.461H182.428V191.293ZM156.405 192.377V237.601H158.572V192.377H156.405ZM157.488 236.518H114.259V238.685H157.488V236.518ZM115.343 237.601V192.377H113.175V237.601H115.343ZM114.259 191.293H0.200352V193.461H114.259V191.293ZM1.28403 192.377V151.143H-0.883329V192.377H1.28403ZM1.17051 151.626L73.9951 5.31149L72.0548 4.34575L-0.769803 150.66L1.17051 151.626ZM73.025 5.9123H121.242V3.74493H73.025V5.9123ZM120.271 4.34751L47.7791 150.662L49.7211 151.624L122.213 5.30972L120.271 4.34751ZM48.7501 152.227H114.259V150.059H48.7501V152.227ZM115.343 151.143V99.2678H113.175V151.143H115.343ZM114.259 100.352H157.488V98.1842H114.259V100.352ZM156.405 99.2678V151.143H158.572V99.2678H156.405ZM241.481 226.96L240.849 227.84L240.856 227.846L240.864 227.851L241.481 226.96ZM208.56 184.396L207.559 184.811L207.564 184.822L208.56 184.396ZM208.56 58.0338L207.564 57.6084L207.559 57.6187L208.56 58.0338ZM241.481 15.8022L242.105 16.6887L242.107 16.6868L241.481 15.8022ZM342.239 15.8022L341.606 16.6822L341.615 16.6887L342.239 15.8022ZM374.827 58.0338L373.826 58.4489L373.83 58.4592L374.827 58.0338ZM374.827 184.396L373.83 183.971L373.826 183.981L374.827 184.396ZM342.239 226.96L342.862 227.847L342.871 227.84L342.239 226.96ZM329.27 179.408L328.392 178.773L328.39 178.775L329.27 179.408ZM329.27 63.3543L328.385 63.9799L328.391 63.9886L328.397 63.9972L329.27 63.3543ZM254.45 63.3543L253.572 62.7187L253.57 62.7215L254.45 63.3543ZM254.45 179.408L253.565 180.034L253.571 180.042L253.578 180.051L254.45 179.408ZM292.026 240.841C272.937 240.841 256.308 235.907 242.098 226.069L240.864 227.851C255.473 237.965 272.542 243.008 292.026 243.008V240.841ZM242.114 226.08C228.107 216.013 217.249 201.992 209.557 183.971L207.564 184.822C215.39 203.157 226.48 217.513 240.849 227.84L242.114 226.08ZM209.562 183.981C202.089 165.959 198.338 145.045 198.338 121.215H196.171C196.171 145.27 199.957 166.476 207.559 184.811L209.562 183.981ZM198.338 121.215C198.338 97.385 202.089 76.4706 209.562 58.4489L207.559 57.6187C199.957 75.9539 196.171 97.1602 196.171 121.215H198.338ZM209.557 58.4592C217.248 40.4397 228.103 26.5332 242.105 16.6887L240.858 14.9157C226.483 25.0232 215.391 39.271 207.564 57.6084L209.557 58.4592ZM242.107 16.6868C256.317 6.63068 272.942 1.58937 292.026 1.58937V-0.577991C272.537 -0.577991 255.465 4.57836 240.855 14.9176L242.107 16.6868ZM292.026 1.58937C311.111 1.58937 327.621 6.63068 341.606 16.6821L342.871 14.9222C328.48 4.57836 311.515 -0.577991 292.026 -0.577991V1.58937ZM341.615 16.6887C355.613 26.5311 366.356 40.434 373.826 58.4489L375.828 57.6187C368.223 39.2768 357.24 25.0252 342.862 14.9157L341.615 16.6887ZM373.83 58.4592C381.521 76.4779 385.382 97.3887 385.382 121.215H387.549C387.549 97.1566 383.651 75.9465 375.823 57.6084L373.83 58.4592ZM385.382 121.215C385.382 145.041 381.521 165.952 373.83 183.971L375.823 184.822C383.651 166.483 387.549 145.273 387.549 121.215H385.382ZM373.826 183.981C366.355 201.997 355.61 216.015 341.606 226.08L342.871 227.84C357.243 217.511 368.223 203.152 375.828 184.811L373.826 183.981ZM341.615 226.074C327.63 235.907 311.116 240.841 292.026 240.841V243.008C311.51 243.008 328.471 237.965 342.862 227.847L341.615 226.074ZM292.026 199.446C308.11 199.446 320.854 192.964 330.15 180.041L328.39 178.775C319.507 191.125 307.422 197.279 292.026 197.279V199.446ZM330.147 180.044C339.653 166.917 344.32 147.248 344.32 121.215H342.152C342.152 147.057 337.508 166.184 328.392 178.773L330.147 180.044ZM344.32 121.215C344.32 95.1837 339.654 75.6205 330.142 62.7115L328.397 63.9972C337.507 76.3606 342.152 95.3712 342.152 121.215H344.32ZM330.155 62.7288C320.862 49.5837 308.118 42.9838 292.026 42.9838V45.1511C307.414 45.1511 319.499 51.4091 328.385 63.9799L330.155 62.7288ZM292.026 42.9838C275.935 42.9838 263.085 49.5822 253.572 62.7187L255.328 63.9899C264.437 51.4106 276.637 45.1511 292.026 45.1511V42.9838ZM253.57 62.7215C244.286 75.6287 239.732 95.1874 239.732 121.215H241.9C241.9 95.3674 246.435 76.3524 255.33 63.9871L253.57 62.7215ZM239.732 121.215C239.732 147.245 244.287 166.909 253.565 180.034L255.335 178.783C246.434 166.192 241.9 147.06 241.9 121.215H239.732ZM253.578 180.051C263.093 192.965 275.943 199.446 292.026 199.446V197.279C276.629 197.279 264.428 191.123 255.322 178.765L253.578 180.051ZM556.917 151.143H555.833V152.227H556.917V151.143ZM581.857 151.143H582.94V150.059H581.857V151.143ZM581.857 192.377V193.461H582.94V192.377H581.857ZM556.917 192.377V191.293H555.833V192.377H556.917ZM556.917 237.601V238.685H558V237.601H556.917ZM513.688 237.601H512.604V238.685H513.688V237.601ZM513.688 192.377H514.771V191.293H513.688V192.377ZM399.629 192.377H398.545V193.461H399.629V192.377ZM399.629 151.143L398.659 150.66L398.545 150.888V151.143H399.629ZM472.454 4.82862V3.74493H471.782L471.483 4.34575L472.454 4.82862ZM520.671 4.82862L521.642 5.30972L522.417 3.74493H520.671V4.82862ZM448.179 151.143L447.208 150.662L446.432 152.227H448.179V151.143ZM513.688 151.143V152.227H514.771V151.143H513.688ZM513.688 99.2678V98.1842H512.604V99.2678H513.688ZM556.917 99.2678H558V98.1842H556.917V99.2678ZM556.917 152.227H581.857V150.059H556.917V152.227ZM580.773 151.143V192.377H582.94V151.143H580.773ZM581.857 191.293H556.917V193.461H581.857V191.293ZM555.833 192.377V237.601H558V192.377H555.833ZM556.917 236.518H513.688V238.685H556.917V236.518ZM514.771 237.601V192.377H512.604V237.601H514.771ZM513.688 191.293H399.629V193.461H513.688V191.293ZM400.713 192.377V151.143H398.545V192.377H400.713ZM400.599 151.626L473.424 5.31149L471.483 4.34575L398.659 150.66L400.599 151.626ZM472.454 5.9123H520.671V3.74493H472.454V5.9123ZM519.7 4.34751L447.208 150.662L449.15 151.624L521.642 5.30972L519.7 4.34751ZM448.179 152.227H513.688V150.059H448.179V152.227ZM514.771 151.143V99.2678H512.604V151.143H514.771ZM513.688 100.352H556.917V98.1842H513.688V100.352ZM555.833 99.2678V151.143H558V99.2678H555.833Z" fill="url(#paint0_linear_12_20890)"/>
<defs>
<linearGradient id="paint0_linear_12_20890" x1="291.791" y1="3.72382" x2="291.791" y2="292.601" gradientUnits="userSpaceOnUse">
<stop stop-color="white"/>
<stop offset="1" stop-color="white" stop-opacity="0"/>
</linearGradient>
</defs>
</svg>
