<svg width="101" height="101" viewBox="0 0 101 101" fill="none" xmlns="http://www.w3.org/2000/svg">
<circle cx="50.002" cy="50.2554" r="50" fill="#896BFF" fill-opacity="0.6"/>
<circle cx="50.002" cy="50.2554" r="49.25" stroke="url(#paint0_linear_60_26180)" stroke-opacity="0.3" stroke-width="1.5"/>
<mask id="mask0_60_26180" style="mask-type:alpha" maskUnits="userSpaceOnUse" x="0" y="0" width="101" height="101">
<circle cx="50.002" cy="50.2554" r="50" fill="#0C1230"/>
<circle cx="50.002" cy="50.2554" r="49.25" stroke="url(#paint1_linear_60_26180)" stroke-opacity="0.3" stroke-width="1.5"/>
</mask>
<g mask="url(#mask0_60_26180)">
<g filter="url(#filter0_d_60_26180)">
<rect x="18.582" y="43.2672" width="63.3314" height="58.9881" rx="10.3047" fill="white"/>
</g>
<path d="M52.7437 74.5372C53.9165 73.8979 54.8429 72.8863 55.3767 71.6619C55.9105 70.4376 56.0212 69.0703 55.6914 67.776C55.3616 66.4817 54.61 65.3341 53.5554 64.5145C52.5007 63.6949 51.2031 63.25 49.8675 63.25C48.5318 63.25 47.2342 63.6949 46.1796 64.5145C45.1249 65.3341 44.3734 66.4817 44.0435 67.776C43.7137 69.0703 43.8244 70.4376 44.3582 71.6619C44.892 72.8863 45.8185 73.8979 46.9912 74.5372L44.0291 81.4487C43.9153 81.7095 43.8681 81.9945 43.8917 82.278C43.9153 82.5616 44.009 82.8348 44.1644 83.0732C44.3197 83.3116 44.5319 83.5076 44.7818 83.6437C45.0317 83.7797 45.3115 83.8516 45.596 83.8527H54.1389C54.4234 83.8516 54.7032 83.7797 54.9531 83.6437C55.203 83.5076 55.4152 83.3116 55.5706 83.0732C55.7259 82.8348 55.8196 82.5616 55.8432 82.278C55.8668 81.9945 55.8196 81.7095 55.7058 81.4487L52.7437 74.5372Z" fill="#896BFF"/>
<path d="M33.3398 43.2672V40.1572C33.3398 30.8196 40.9095 23.25 50.2471 23.25V23.25C59.5847 23.25 67.1543 30.8196 67.1543 40.1572V43.2672" stroke="#896BFF" stroke-width="3.14935"/>
</g>
<defs>
<filter id="filter0_d_60_26180" x="15.8826" y="41.4676" width="68.7309" height="64.387" filterUnits="userSpaceOnUse" color-interpolation-filters="sRGB">
<feFlood flood-opacity="0" result="BackgroundImageFix"/>
<feColorMatrix in="SourceAlpha" type="matrix" values="0 0 0 0 0 0 0 0 0 0 0 0 0 0 0 0 0 0 127 0" result="hardAlpha"/>
<feOffset dy="0.899816"/>
<feGaussianBlur stdDeviation="1.34972"/>
<feComposite in2="hardAlpha" operator="out"/>
<feColorMatrix type="matrix" values="0 0 0 0 0.270833 0 0 0 0 0.51875 0 0 0 0 1 0 0 0 0.06 0"/>
<feBlend mode="normal" in2="BackgroundImageFix" result="effect1_dropShadow_60_26180"/>
<feBlend mode="normal" in="SourceGraphic" in2="effect1_dropShadow_60_26180" result="shape"/>
</filter>
<linearGradient id="paint0_linear_60_26180" x1="50.002" y1="0.255371" x2="50.002" y2="100.255" gradientUnits="userSpaceOnUse">
<stop stop-color="#896BFF" stop-opacity="0"/>
<stop offset="1" stop-color="#896BFF"/>
</linearGradient>
<linearGradient id="paint1_linear_60_26180" x1="50.002" y1="0.255371" x2="50.002" y2="100.255" gradientUnits="userSpaceOnUse">
<stop stop-color="#52B6FF" stop-opacity="0"/>
<stop offset="1" stop-color="#A2D8FF"/>
</linearGradient>
</defs>
</svg>
