<svg width="30" height="30" viewBox="0 0 30 30" fill="none" xmlns="http://www.w3.org/2000/svg">
<g clip-path="url(#clip0_12_20535)">
<path d="M28.9092 15.2714C28.9092 14.0832 28.8131 13.2162 28.6053 12.3171H15.0898V17.6797H23.0231C22.8632 19.0124 21.9995 21.0193 20.0801 22.3679L20.0532 22.5475L24.3266 25.8706L24.6226 25.9003C27.3417 23.3795 28.9092 19.6706 28.9092 15.2714Z" fill="#4C8BF3"/>
<path d="M15.0902 29.4005C18.9768 29.4005 22.2397 28.1159 24.623 25.9003L20.0805 22.368C18.8649 23.2189 17.2334 23.813 15.0902 23.813C11.2835 23.813 8.0526 21.2923 6.90087 17.8082L6.73206 17.8226L2.28858 21.2746L2.23047 21.4367C4.59765 26.1571 9.46003 29.4005 15.0902 29.4005Z" fill="#34A853"/>
<path d="M6.89725 17.8082C6.59336 16.9091 6.41749 15.9457 6.41749 14.9502C6.41749 13.9547 6.59336 12.9914 6.88127 12.0923L6.87322 11.9008L2.37406 8.39337L2.22685 8.46366C1.25122 10.4225 0.691406 12.6222 0.691406 14.9502C0.691406 17.2783 1.25122 19.4779 2.22685 21.4367L6.89725 17.8082Z" fill="#FFD584"/>
<path d="M15.0902 6.08743C17.7932 6.08743 19.6166 7.2595 20.6563 8.23897L24.7189 4.25711C22.2238 1.92903 18.9768 0.500061 15.0902 0.500061C9.46002 0.500061 4.59765 3.7433 2.23047 8.46366L6.88488 12.0923C8.05259 8.60822 11.2835 6.08743 15.0902 6.08743Z" fill="#EA4335"/>
</g>
<defs>
<clipPath id="clip0_12_20535">
<rect width="29.1254" height="29" fill="white" transform="translate(0.351562 0.500061)"/>
</clipPath>
</defs>
</svg>
