<svg width="64" height="64" viewBox="0 0 64 64" fill="none" xmlns="http://www.w3.org/2000/svg">
<circle cx="32" cy="32" r="32" fill="#896BFF" fill-opacity="0.6"/>
<circle cx="32" cy="32" r="31.5" stroke="url(#paint0_linear_60_25859)" stroke-opacity="0.3"/>
<mask id="mask0_60_25859" style="mask-type:alpha" maskUnits="userSpaceOnUse" x="0" y="0" width="64" height="64">
<circle cx="32" cy="32" r="32" fill="#B0E3FF"/>
<circle cx="32" cy="32" r="31.5" stroke="url(#paint1_linear_60_25859)" stroke-opacity="0.3"/>
</mask>
<g mask="url(#mask0_60_25859)">
<rect x="22.2422" y="13.875" width="49.1422" height="32.359" rx="16.1795" fill="url(#paint2_linear_60_25859)"/>
<circle cx="37.8125" cy="30.0547" r="2.5" fill="#896BFF"/>
<circle cx="46.8125" cy="30.0547" r="2.5" fill="#896BFF"/>
<circle cx="55.8125" cy="30.0547" r="2.5" fill="#896BFF"/>
<path d="M40.7996 50.882C40.2561 51.8233 38.8974 51.8233 38.3539 50.882L35.5515 46.0281C35.008 45.0867 35.6874 43.9101 36.7744 43.9101L42.3791 43.9101C43.4661 43.9101 44.1455 45.0867 43.602 46.0281L40.7996 50.882Z" fill="url(#paint3_linear_60_25859)"/>
<g filter="url(#filter0_d_60_25859)">
<path d="M31.6797 40.3L25.8172 37.8C25.5147 37.6644 25.1826 37.6082 24.8524 37.6366C24.5221 37.6651 24.2046 37.7772 23.9297 37.9625L20.7922 40.05C18.88 39.1213 17.3318 37.5819 16.3922 35.675V35.675L18.4672 32.5C18.6512 32.2249 18.7636 31.9081 18.7942 31.5785C18.8248 31.2488 18.7725 30.9168 18.6422 30.6125L16.1297 24.75C15.9544 24.3542 15.6575 24.0244 15.2822 23.8087C14.9068 23.5929 14.4725 23.5023 14.0422 23.55C12.3542 23.7711 10.8039 24.5977 9.67959 25.8761C8.55528 27.1544 7.93344 28.7976 7.92969 30.5C7.92969 40.425 16.0047 48.5 25.9297 48.5C27.6321 48.4963 29.2753 47.8744 30.5536 46.7501C31.832 45.6258 32.6586 44.0755 32.8797 42.3875C32.9274 41.9572 32.8368 41.5229 32.621 41.1475C32.4053 40.7722 32.0755 40.4753 31.6797 40.3Z" fill="#896BFF"/>
</g>
</g>
<defs>
<filter id="filter0_d_60_25859" x="1.92969" y="19.5376" width="36.9629" height="36.9624" filterUnits="userSpaceOnUse" color-interpolation-filters="sRGB">
<feFlood flood-opacity="0" result="BackgroundImageFix"/>
<feColorMatrix in="SourceAlpha" type="matrix" values="0 0 0 0 0 0 0 0 0 0 0 0 0 0 0 0 0 0 127 0" result="hardAlpha"/>
<feOffset dy="2"/>
<feGaussianBlur stdDeviation="3"/>
<feComposite in2="hardAlpha" operator="out"/>
<feColorMatrix type="matrix" values="0 0 0 0 0.152941 0 0 0 0 0.223529 0 0 0 0 0.576471 0 0 0 0.06 0"/>
<feBlend mode="normal" in2="BackgroundImageFix" result="effect1_dropShadow_60_25859"/>
<feBlend mode="normal" in="SourceGraphic" in2="effect1_dropShadow_60_25859" result="shape"/>
</filter>
<linearGradient id="paint0_linear_60_25859" x1="32" y1="0" x2="32" y2="64" gradientUnits="userSpaceOnUse">
<stop stop-color="#896BFF" stop-opacity="0"/>
<stop offset="1" stop-color="#663AE7"/>
</linearGradient>
<linearGradient id="paint1_linear_60_25859" x1="32" y1="0" x2="32" y2="64" gradientUnits="userSpaceOnUse">
<stop stop-color="#52B6FF"/>
<stop offset="1" stop-color="#52B6FF" stop-opacity="0"/>
</linearGradient>
<linearGradient id="paint2_linear_60_25859" x1="46.8133" y1="13.875" x2="46.8133" y2="46.234" gradientUnits="userSpaceOnUse">
<stop stop-color="white"/>
<stop offset="1" stop-color="#F9FAFF"/>
</linearGradient>
<linearGradient id="paint3_linear_60_25859" x1="39.5768" y1="53" x2="39.5768" y2="40.8801" gradientUnits="userSpaceOnUse">
<stop stop-color="white"/>
<stop offset="1" stop-color="#F9FAFF"/>
</linearGradient>
</defs>
</svg>
