<svg width="80" height="80" viewBox="0 0 80 80" fill="none" xmlns="http://www.w3.org/2000/svg">
<rect width="80" height="80" fill="white"/>
<path fill-rule="evenodd" clip-rule="evenodd" d="M56.3104 30.0641C59.8317 30.0641 62.6862 27.2096 62.6862 23.6883C62.6862 20.167 59.8317 17.3125 56.3104 17.3125C52.7892 17.3125 49.9346 20.167 49.9346 23.6883C49.9346 27.2096 52.7892 30.0641 56.3104 30.0641Z" fill="#8055FA"/>
<path fill-rule="evenodd" clip-rule="evenodd" d="M56.3101 46.0774C59.8314 46.0774 62.6859 43.2229 62.6859 39.7018C62.6859 36.1806 59.8314 33.3262 56.3101 33.3262C52.7889 33.3262 49.9343 36.1806 49.9343 39.7018C49.9343 43.2229 52.7889 46.0774 56.3101 46.0774Z" fill="#7550FB"/>
<path fill-rule="evenodd" clip-rule="evenodd" d="M56.3101 62.6852C59.8314 62.6852 62.6859 59.8307 62.6859 56.3094C62.6859 52.7881 59.8314 49.9336 56.3101 49.9336C52.7889 49.9336 49.9343 52.7881 49.9343 56.3094C49.9343 59.8307 52.7889 62.6852 56.3101 62.6852Z" fill="#6A4AFC"/>
<path fill-rule="evenodd" clip-rule="evenodd" d="M39.7038 46.0774C43.2249 46.0774 46.0794 43.2229 46.0794 39.7018C46.0794 36.1806 43.2249 33.3262 39.7038 33.3262C36.1826 33.3262 33.3282 36.1806 33.3282 39.7018C33.3282 43.2229 36.1826 46.0774 39.7038 46.0774Z" fill="#6045FD"/>
<path fill-rule="evenodd" clip-rule="evenodd" d="M39.7036 62.6852C43.2247 62.6852 46.0792 59.8307 46.0792 56.3094C46.0792 52.7881 43.2247 49.9336 39.7036 49.9336C36.1824 49.9336 33.3279 52.7881 33.3279 56.3094C33.3279 59.8307 36.1824 62.6852 39.7036 62.6852Z" fill="#553FFE"/>
<path fill-rule="evenodd" clip-rule="evenodd" d="M23.6895 62.6842C27.2108 62.6842 30.0653 59.8297 30.0653 56.3084C30.0653 52.7872 27.2108 49.9326 23.6895 49.9326C20.1683 49.9326 17.3137 52.7872 17.3137 56.3084C17.3137 59.8297 20.1683 62.6842 23.6895 62.6842Z" fill="#4A3AFF"/>
</svg>
