<svg width="64" height="64" viewBox="0 0 64 64" fill="none" xmlns="http://www.w3.org/2000/svg">
<circle cx="32" cy="32" r="32" fill="#B0E3FF" fill-opacity="0.6"/>
<circle cx="32" cy="32" r="31.5" stroke="url(#paint0_linear_128_25715)" stroke-opacity="0.3"/>
<mask id="mask0_128_25715" style="mask-type:alpha" maskUnits="userSpaceOnUse" x="0" y="0" width="64" height="64">
<circle cx="32" cy="32" r="32" fill="#B0E3FF"/>
<circle cx="32" cy="32" r="31.5" stroke="url(#paint1_linear_128_25715)" stroke-opacity="0.3"/>
</mask>
<g mask="url(#mask0_128_25715)">
<rect x="19.9805" y="-7.75977" width="45.1124" height="50.6068" rx="5" fill="url(#paint2_linear_128_25715)"/>
<rect x="60.4141" y="12.5664" width="2.96235" height="35.6445" rx="1.48118" transform="rotate(90 60.4141 12.5664)" fill="#CBD0EA"/>
<rect x="44.4883" y="19.1543" width="2.96235" height="18.8945" rx="1.48118" transform="rotate(90 44.4883 19.1543)" fill="#52B6FF"/>
<circle cx="23.6895" cy="44" r="12" fill="#52B6FF"/>
<path d="M23.6289 37.125V38.625" stroke="white" stroke-width="2" stroke-linecap="round" stroke-linejoin="round"/>
<path d="M23.6289 48.625V50.125" stroke="white" stroke-width="2" stroke-linecap="round" stroke-linejoin="round"/>
<path d="M27.1289 41.125C27.1289 40.7967 27.0642 40.4716 26.9386 40.1683C26.813 39.865 26.6288 39.5894 26.3967 39.3572C26.1645 39.1251 25.8889 38.9409 25.5856 38.8153C25.2823 38.6897 24.9572 38.625 24.6289 38.625H22.3789C21.7159 38.625 21.08 38.8884 20.6111 39.3572C20.1423 39.8261 19.8789 40.462 19.8789 41.125C19.8789 41.788 20.1423 42.4239 20.6111 42.8928C21.08 43.3616 21.7159 43.625 22.3789 43.625H25.1289C25.7919 43.625 26.4278 43.8884 26.8967 44.3572C27.3655 44.8261 27.6289 45.462 27.6289 46.125C27.6289 46.788 27.3655 47.4239 26.8967 47.8928C26.4278 48.3616 25.7919 48.625 25.1289 48.625H22.1289C21.4659 48.625 20.83 48.3616 20.3611 47.8928C19.8923 47.4239 19.6289 46.788 19.6289 46.125" stroke="white" stroke-width="2" stroke-linecap="round" stroke-linejoin="round"/>
</g>
<defs>
<linearGradient id="paint0_linear_128_25715" x1="32" y1="0" x2="32" y2="64" gradientUnits="userSpaceOnUse">
<stop stop-color="#52B6FF" stop-opacity="0"/>
<stop offset="1" stop-color="#A2D8FF"/>
</linearGradient>
<linearGradient id="paint1_linear_128_25715" x1="32" y1="0" x2="32" y2="64" gradientUnits="userSpaceOnUse">
<stop stop-color="#52B6FF"/>
<stop offset="1" stop-color="#52B6FF" stop-opacity="0"/>
</linearGradient>
<linearGradient id="paint2_linear_128_25715" x1="42.5367" y1="-7.75977" x2="42.5367" y2="42.8471" gradientUnits="userSpaceOnUse">
<stop stop-color="white"/>
<stop offset="1" stop-color="#F9FAFF"/>
</linearGradient>
</defs>
</svg>
